<?xml version="1.0" standalone="no"?>
 <!DOCTYPE svg PUBLIC "-//W3C//DTD SVG 1.1//EN" 
 "http://www.w3.org/Graphics/SVG/1.1/DTD/svg11.dtd"> 
<svg
  xmlns:svg="http://www.w3.org/2000/svg"
  xmlns="http://www.w3.org/2000/svg"
  xmlns:xlink="http://www.w3.org/1999/xlink"
  version="1.1"
  width="297.0022mm" height="210.0072mm" viewBox="0.0000 0.0000 297.0022 210.0072">
<title>SVG Image created as ew2.svg date 2025/12/26 00:25:27 </title>
  <desc>Image generated by Eeschema-SVG </desc>
<g style="fill:#000000; fill-opacity:1.0000;stroke:#000000; stroke-opacity:1.0000;
stroke-linecap:round; stroke-linejoin:round;"
 transform="translate(0 0) scale(1 1)">
</g>
<g style="fill:none; 
stroke:#840000; stroke-width:0.1524; stroke-opacity:1; 
stroke-linecap:round; stroke-linejoin:round;">
<path d="M177.0022 166.0072
L285.0022 166.0072
L285.0022 198.0072
L177.0022 198.0072
L177.0022 166.0072
" />
<path d="M10.0000 10.0000
L287.0022 10.0000
L287.0022 200.0072
L10.0000 200.0072
L10.0000 10.0000
" />
<path d="M12.0000 12.0000
L285.0022 12.0000
L285.0022 198.0072
L12.0000 198.0072
L12.0000 12.0000
" />
<path d="M60.0000 12.0000
L60.0000 10.0000
" />
<path d="M110.0000 12.0000
L110.0000 10.0000
" />
<path d="M160.0000 12.0000
L160.0000 10.0000
" />
<path d="M210.0000 12.0000
L210.0000 10.0000
" />
<path d="M260.0000 12.0000
L260.0000 10.0000
" />
<text x="35.0000" y="11.6500"
textLength="1.4353" font-size="1.7333" lengthAdjust="spacingAndGlyphs"
text-anchor="start" opacity="0" stroke-opacity="0">1</text>
<g class="stroked-text"><desc>1</desc>
<path d="M36.0906 11.5935
L35.3478 11.5935
" />
<path d="M35.7192 11.5935
L35.7192 10.2935
" />
<path d="M35.7192 10.2935
L35.5954 10.4792
" />
<path d="M35.5954 10.4792
L35.4716 10.6030
" />
<path d="M35.4716 10.6030
L35.3478 10.6649
" />
</g><text x="85.0000" y="11.6500"
textLength="1.4353" font-size="1.7333" lengthAdjust="spacingAndGlyphs"
text-anchor="start" opacity="0" stroke-opacity="0">2</text>
<g class="stroked-text"><desc>2</desc>
<path d="M85.3478 10.4173
L85.4097 10.3554
" />
<path d="M85.4097 10.3554
L85.5335 10.2935
" />
<path d="M85.5335 10.2935
L85.8430 10.2935
" />
<path d="M85.8430 10.2935
L85.9668 10.3554
" />
<path d="M85.9668 10.3554
L86.0287 10.4173
" />
<path d="M86.0287 10.4173
L86.0906 10.5411
" />
<path d="M86.0906 10.5411
L86.0906 10.6649
" />
<path d="M86.0906 10.6649
L86.0287 10.8506
" />
<path d="M86.0287 10.8506
L85.2859 11.5935
" />
<path d="M85.2859 11.5935
L86.0906 11.5935
" />
</g><text x="135.0000" y="11.6500"
textLength="1.4353" font-size="1.7333" lengthAdjust="spacingAndGlyphs"
text-anchor="start" opacity="0" stroke-opacity="0">3</text>
<g class="stroked-text"><desc>3</desc>
<path d="M135.2859 10.2935
L136.0906 10.2935
" />
<path d="M136.0906 10.2935
L135.6573 10.7887
" />
<path d="M135.6573 10.7887
L135.8430 10.7887
" />
<path d="M135.8430 10.7887
L135.9668 10.8506
" />
<path d="M135.9668 10.8506
L136.0287 10.9125
" />
<path d="M136.0287 10.9125
L136.0906 11.0363
" />
<path d="M136.0906 11.0363
L136.0906 11.3458
" />
<path d="M136.0906 11.3458
L136.0287 11.4696
" />
<path d="M136.0287 11.4696
L135.9668 11.5316
" />
<path d="M135.9668 11.5316
L135.8430 11.5935
" />
<path d="M135.8430 11.5935
L135.4716 11.5935
" />
<path d="M135.4716 11.5935
L135.3478 11.5316
" />
<path d="M135.3478 11.5316
L135.2859 11.4696
" />
</g><text x="185.0000" y="11.6500"
textLength="1.4353" font-size="1.7333" lengthAdjust="spacingAndGlyphs"
text-anchor="start" opacity="0" stroke-opacity="0">4</text>
<g class="stroked-text"><desc>4</desc>
<path d="M185.9668 10.7268
L185.9668 11.5935
" />
<path d="M185.6573 10.2316
L185.3478 11.1601
" />
<path d="M185.3478 11.1601
L186.1525 11.1601
" />
</g><text x="235.0000" y="11.6500"
textLength="1.4353" font-size="1.7333" lengthAdjust="spacingAndGlyphs"
text-anchor="start" opacity="0" stroke-opacity="0">5</text>
<g class="stroked-text"><desc>5</desc>
<path d="M236.0287 10.2935
L235.4097 10.2935
" />
<path d="M235.4097 10.2935
L235.3478 10.9125
" />
<path d="M235.3478 10.9125
L235.4097 10.8506
" />
<path d="M235.4097 10.8506
L235.5335 10.7887
" />
<path d="M235.5335 10.7887
L235.8430 10.7887
" />
<path d="M235.8430 10.7887
L235.9668 10.8506
" />
<path d="M235.9668 10.8506
L236.0287 10.9125
" />
<path d="M236.0287 10.9125
L236.0906 11.0363
" />
<path d="M236.0906 11.0363
L236.0906 11.3458
" />
<path d="M236.0906 11.3458
L236.0287 11.4696
" />
<path d="M236.0287 11.4696
L235.9668 11.5316
" />
<path d="M235.9668 11.5316
L235.8430 11.5935
" />
<path d="M235.8430 11.5935
L235.5335 11.5935
" />
<path d="M235.5335 11.5935
L235.4097 11.5316
" />
<path d="M235.4097 11.5316
L235.3478 11.4696
" />
</g><text x="285.0000" y="11.6500"
textLength="1.4353" font-size="1.7333" lengthAdjust="spacingAndGlyphs"
text-anchor="start" opacity="0" stroke-opacity="0">6</text>
<g class="stroked-text"><desc>6</desc>
<path d="M285.9668 10.2935
L285.7192 10.2935
" />
<path d="M285.7192 10.2935
L285.5954 10.3554
" />
<path d="M285.5954 10.3554
L285.5335 10.4173
" />
<path d="M285.5335 10.4173
L285.4097 10.6030
" />
<path d="M285.4097 10.6030
L285.3478 10.8506
" />
<path d="M285.3478 10.8506
L285.3478 11.3458
" />
<path d="M285.3478 11.3458
L285.4097 11.4696
" />
<path d="M285.4097 11.4696
L285.4716 11.5316
" />
<path d="M285.4716 11.5316
L285.5954 11.5935
" />
<path d="M285.5954 11.5935
L285.8430 11.5935
" />
<path d="M285.8430 11.5935
L285.9668 11.5316
" />
<path d="M285.9668 11.5316
L286.0287 11.4696
" />
<path d="M286.0287 11.4696
L286.0906 11.3458
" />
<path d="M286.0906 11.3458
L286.0906 11.0363
" />
<path d="M286.0906 11.0363
L286.0287 10.9125
" />
<path d="M286.0287 10.9125
L285.9668 10.8506
" />
<path d="M285.9668 10.8506
L285.8430 10.7887
" />
<path d="M285.8430 10.7887
L285.5954 10.7887
" />
<path d="M285.5954 10.7887
L285.4716 10.8506
" />
<path d="M285.4716 10.8506
L285.4097 10.9125
" />
<path d="M285.4097 10.9125
L285.3478 11.0363
" />
</g><path d="M60.0000 198.0072
L60.0000 200.0072
" />
<path d="M110.0000 198.0072
L110.0000 200.0072
" />
<path d="M160.0000 198.0072
L160.0000 200.0072
" />
<path d="M210.0000 198.0072
L210.0000 200.0072
" />
<path d="M260.0000 198.0072
L260.0000 200.0072
" />
<text x="35.0000" y="199.6572"
textLength="1.4353" font-size="1.7333" lengthAdjust="spacingAndGlyphs"
text-anchor="start" opacity="0" stroke-opacity="0">1</text>
<g class="stroked-text"><desc>1</desc>
<path d="M36.0906 199.6007
L35.3478 199.6007
" />
<path d="M35.7192 199.6007
L35.7192 198.3007
" />
<path d="M35.7192 198.3007
L35.5954 198.4864
" />
<path d="M35.5954 198.4864
L35.4716 198.6102
" />
<path d="M35.4716 198.6102
L35.3478 198.6721
" />
</g><text x="85.0000" y="199.6572"
textLength="1.4353" font-size="1.7333" lengthAdjust="spacingAndGlyphs"
text-anchor="start" opacity="0" stroke-opacity="0">2</text>
<g class="stroked-text"><desc>2</desc>
<path d="M85.3478 198.4245
L85.4097 198.3626
" />
<path d="M85.4097 198.3626
L85.5335 198.3007
" />
<path d="M85.5335 198.3007
L85.8430 198.3007
" />
<path d="M85.8430 198.3007
L85.9668 198.3626
" />
<path d="M85.9668 198.3626
L86.0287 198.4245
" />
<path d="M86.0287 198.4245
L86.0906 198.5483
" />
<path d="M86.0906 198.5483
L86.0906 198.6721
" />
<path d="M86.0906 198.6721
L86.0287 198.8578
" />
<path d="M86.0287 198.8578
L85.2859 199.6007
" />
<path d="M85.2859 199.6007
L86.0906 199.6007
" />
</g><text x="135.0000" y="199.6572"
textLength="1.4353" font-size="1.7333" lengthAdjust="spacingAndGlyphs"
text-anchor="start" opacity="0" stroke-opacity="0">3</text>
<g class="stroked-text"><desc>3</desc>
<path d="M135.2859 198.3007
L136.0906 198.3007
" />
<path d="M136.0906 198.3007
L135.6573 198.7959
" />
<path d="M135.6573 198.7959
L135.8430 198.7959
" />
<path d="M135.8430 198.7959
L135.9668 198.8578
" />
<path d="M135.9668 198.8578
L136.0287 198.9197
" />
<path d="M136.0287 198.9197
L136.0906 199.0435
" />
<path d="M136.0906 199.0435
L136.0906 199.3530
" />
<path d="M136.0906 199.3530
L136.0287 199.4768
" />
<path d="M136.0287 199.4768
L135.9668 199.5388
" />
<path d="M135.9668 199.5388
L135.8430 199.6007
" />
<path d="M135.8430 199.6007
L135.4716 199.6007
" />
<path d="M135.4716 199.6007
L135.3478 199.5388
" />
<path d="M135.3478 199.5388
L135.2859 199.4768
" />
</g><text x="185.0000" y="199.6572"
textLength="1.4353" font-size="1.7333" lengthAdjust="spacingAndGlyphs"
text-anchor="start" opacity="0" stroke-opacity="0">4</text>
<g class="stroked-text"><desc>4</desc>
<path d="M185.9668 198.7340
L185.9668 199.6007
" />
<path d="M185.6573 198.2388
L185.3478 199.1673
" />
<path d="M185.3478 199.1673
L186.1525 199.1673
" />
</g><text x="235.0000" y="199.6572"
textLength="1.4353" font-size="1.7333" lengthAdjust="spacingAndGlyphs"
text-anchor="start" opacity="0" stroke-opacity="0">5</text>
<g class="stroked-text"><desc>5</desc>
<path d="M236.0287 198.3007
L235.4097 198.3007
" />
<path d="M235.4097 198.3007
L235.3478 198.9197
" />
<path d="M235.3478 198.9197
L235.4097 198.8578
" />
<path d="M235.4097 198.8578
L235.5335 198.7959
" />
<path d="M235.5335 198.7959
L235.8430 198.7959
" />
<path d="M235.8430 198.7959
L235.9668 198.8578
" />
<path d="M235.9668 198.8578
L236.0287 198.9197
" />
<path d="M236.0287 198.9197
L236.0906 199.0435
" />
<path d="M236.0906 199.0435
L236.0906 199.3530
" />
<path d="M236.0906 199.3530
L236.0287 199.4768
" />
<path d="M236.0287 199.4768
L235.9668 199.5388
" />
<path d="M235.9668 199.5388
L235.8430 199.6007
" />
<path d="M235.8430 199.6007
L235.5335 199.6007
" />
<path d="M235.5335 199.6007
L235.4097 199.5388
" />
<path d="M235.4097 199.5388
L235.3478 199.4768
" />
</g><text x="285.0000" y="199.6572"
textLength="1.4353" font-size="1.7333" lengthAdjust="spacingAndGlyphs"
text-anchor="start" opacity="0" stroke-opacity="0">6</text>
<g class="stroked-text"><desc>6</desc>
<path d="M285.9668 198.3007
L285.7192 198.3007
" />
<path d="M285.7192 198.3007
L285.5954 198.3626
" />
<path d="M285.5954 198.3626
L285.5335 198.4245
" />
<path d="M285.5335 198.4245
L285.4097 198.6102
" />
<path d="M285.4097 198.6102
L285.3478 198.8578
" />
<path d="M285.3478 198.8578
L285.3478 199.3530
" />
<path d="M285.3478 199.3530
L285.4097 199.4768
" />
<path d="M285.4097 199.4768
L285.4716 199.5388
" />
<path d="M285.4716 199.5388
L285.5954 199.6007
" />
<path d="M285.5954 199.6007
L285.8430 199.6007
" />
<path d="M285.8430 199.6007
L285.9668 199.5388
" />
<path d="M285.9668 199.5388
L286.0287 199.4768
" />
<path d="M286.0287 199.4768
L286.0906 199.3530
" />
<path d="M286.0906 199.3530
L286.0906 199.0435
" />
<path d="M286.0906 199.0435
L286.0287 198.9197
" />
<path d="M286.0287 198.9197
L285.9668 198.8578
" />
<path d="M285.9668 198.8578
L285.8430 198.7959
" />
<path d="M285.8430 198.7959
L285.5954 198.7959
" />
<path d="M285.5954 198.7959
L285.4716 198.8578
" />
<path d="M285.4716 198.8578
L285.4097 198.9197
" />
<path d="M285.4097 198.9197
L285.3478 199.0435
" />
</g><path d="M10.0000 60.0000
L12.0000 60.0000
" />
<path d="M10.0000 110.0000
L12.0000 110.0000
" />
<path d="M10.0000 160.0000
L12.0000 160.0000
" />
<text x="11.0000" y="35.6500"
textLength="1.3115" font-size="1.7333" lengthAdjust="spacingAndGlyphs"
text-anchor="middle" opacity="0" stroke-opacity="0">A</text>
<g class="stroked-text"><desc>A</desc>
<path d="M10.6905 35.2220
L11.3095 35.2220
" />
<path d="M10.5667 35.5935
L11.0000 34.2935
" />
<path d="M11.0000 34.2935
L11.4333 35.5935
" />
</g><text x="11.0000" y="85.6500"
textLength="1.4972" font-size="1.7333" lengthAdjust="spacingAndGlyphs"
text-anchor="middle" opacity="0" stroke-opacity="0">B</text>
<g class="stroked-text"><desc>B</desc>
<path d="M11.0928 84.9125
L11.2785 84.9744
" />
<path d="M11.2785 84.9744
L11.3404 85.0363
" />
<path d="M11.3404 85.0363
L11.4023 85.1601
" />
<path d="M11.4023 85.1601
L11.4023 85.3458
" />
<path d="M11.4023 85.3458
L11.3404 85.4696
" />
<path d="M11.3404 85.4696
L11.2785 85.5316
" />
<path d="M11.2785 85.5316
L11.1547 85.5935
" />
<path d="M11.1547 85.5935
L10.6595 85.5935
" />
<path d="M10.6595 85.5935
L10.6595 84.2935
" />
<path d="M10.6595 84.2935
L11.0928 84.2935
" />
<path d="M11.0928 84.2935
L11.2166 84.3554
" />
<path d="M11.2166 84.3554
L11.2785 84.4173
" />
<path d="M11.2785 84.4173
L11.3404 84.5411
" />
<path d="M11.3404 84.5411
L11.3404 84.6649
" />
<path d="M11.3404 84.6649
L11.2785 84.7887
" />
<path d="M11.2785 84.7887
L11.2166 84.8506
" />
<path d="M11.2166 84.8506
L11.0928 84.9125
" />
<path d="M11.0928 84.9125
L10.6595 84.9125
" />
</g><text x="11.0000" y="135.6500"
textLength="1.4972" font-size="1.7333" lengthAdjust="spacingAndGlyphs"
text-anchor="middle" opacity="0" stroke-opacity="0">C</text>
<g class="stroked-text"><desc>C</desc>
<path d="M11.4023 135.4696
L11.3404 135.5316
" />
<path d="M11.3404 135.5316
L11.1547 135.5935
" />
<path d="M11.1547 135.5935
L11.0309 135.5935
" />
<path d="M11.0309 135.5935
L10.8452 135.5316
" />
<path d="M10.8452 135.5316
L10.7214 135.4077
" />
<path d="M10.7214 135.4077
L10.6595 135.2839
" />
<path d="M10.6595 135.2839
L10.5976 135.0363
" />
<path d="M10.5976 135.0363
L10.5976 134.8506
" />
<path d="M10.5976 134.8506
L10.6595 134.6030
" />
<path d="M10.6595 134.6030
L10.7214 134.4792
" />
<path d="M10.7214 134.4792
L10.8452 134.3554
" />
<path d="M10.8452 134.3554
L11.0309 134.2935
" />
<path d="M11.0309 134.2935
L11.1547 134.2935
" />
<path d="M11.1547 134.2935
L11.3404 134.3554
" />
<path d="M11.3404 134.3554
L11.4023 134.4173
" />
</g><text x="11.0000" y="185.6500"
textLength="1.4972" font-size="1.7333" lengthAdjust="spacingAndGlyphs"
text-anchor="middle" opacity="0" stroke-opacity="0">D</text>
<g class="stroked-text"><desc>D</desc>
<path d="M10.6595 185.5935
L10.6595 184.2935
" />
<path d="M10.6595 184.2935
L10.9690 184.2935
" />
<path d="M10.9690 184.2935
L11.1547 184.3554
" />
<path d="M11.1547 184.3554
L11.2785 184.4792
" />
<path d="M11.2785 184.4792
L11.3404 184.6030
" />
<path d="M11.3404 184.6030
L11.4023 184.8506
" />
<path d="M11.4023 184.8506
L11.4023 185.0363
" />
<path d="M11.4023 185.0363
L11.3404 185.2839
" />
<path d="M11.3404 185.2839
L11.2785 185.4077
" />
<path d="M11.2785 185.4077
L11.1547 185.5316
" />
<path d="M11.1547 185.5316
L10.9690 185.5935
" />
<path d="M10.9690 185.5935
L10.6595 185.5935
" />
</g><path d="M287.0022 60.0000
L285.0022 60.0000
" />
<path d="M287.0022 110.0000
L285.0022 110.0000
" />
<path d="M287.0022 160.0000
L285.0022 160.0000
" />
<text x="286.0022" y="35.6500"
textLength="1.3115" font-size="1.7333" lengthAdjust="spacingAndGlyphs"
text-anchor="middle" opacity="0" stroke-opacity="0">A</text>
<g class="stroked-text"><desc>A</desc>
<path d="M285.6927 35.2220
L286.3117 35.2220
" />
<path d="M285.5689 35.5935
L286.0022 34.2935
" />
<path d="M286.0022 34.2935
L286.4355 35.5935
" />
</g><text x="286.0022" y="85.6500"
textLength="1.4972" font-size="1.7333" lengthAdjust="spacingAndGlyphs"
text-anchor="middle" opacity="0" stroke-opacity="0">B</text>
<g class="stroked-text"><desc>B</desc>
<path d="M286.0950 84.9125
L286.2807 84.9744
" />
<path d="M286.2807 84.9744
L286.3426 85.0363
" />
<path d="M286.3426 85.0363
L286.4045 85.1601
" />
<path d="M286.4045 85.1601
L286.4045 85.3458
" />
<path d="M286.4045 85.3458
L286.3426 85.4696
" />
<path d="M286.3426 85.4696
L286.2807 85.5316
" />
<path d="M286.2807 85.5316
L286.1569 85.5935
" />
<path d="M286.1569 85.5935
L285.6617 85.5935
" />
<path d="M285.6617 85.5935
L285.6617 84.2935
" />
<path d="M285.6617 84.2935
L286.0950 84.2935
" />
<path d="M286.0950 84.2935
L286.2188 84.3554
" />
<path d="M286.2188 84.3554
L286.2807 84.4173
" />
<path d="M286.2807 84.4173
L286.3426 84.5411
" />
<path d="M286.3426 84.5411
L286.3426 84.6649
" />
<path d="M286.3426 84.6649
L286.2807 84.7887
" />
<path d="M286.2807 84.7887
L286.2188 84.8506
" />
<path d="M286.2188 84.8506
L286.0950 84.9125
" />
<path d="M286.0950 84.9125
L285.6617 84.9125
" />
</g><text x="286.0022" y="135.6500"
textLength="1.4972" font-size="1.7333" lengthAdjust="spacingAndGlyphs"
text-anchor="middle" opacity="0" stroke-opacity="0">C</text>
<g class="stroked-text"><desc>C</desc>
<path d="M286.4045 135.4696
L286.3426 135.5316
" />
<path d="M286.3426 135.5316
L286.1569 135.5935
" />
<path d="M286.1569 135.5935
L286.0331 135.5935
" />
<path d="M286.0331 135.5935
L285.8474 135.5316
" />
<path d="M285.8474 135.5316
L285.7236 135.4077
" />
<path d="M285.7236 135.4077
L285.6617 135.2839
" />
<path d="M285.6617 135.2839
L285.5998 135.0363
" />
<path d="M285.5998 135.0363
L285.5998 134.8506
" />
<path d="M285.5998 134.8506
L285.6617 134.6030
" />
<path d="M285.6617 134.6030
L285.7236 134.4792
" />
<path d="M285.7236 134.4792
L285.8474 134.3554
" />
<path d="M285.8474 134.3554
L286.0331 134.2935
" />
<path d="M286.0331 134.2935
L286.1569 134.2935
" />
<path d="M286.1569 134.2935
L286.3426 134.3554
" />
<path d="M286.3426 134.3554
L286.4045 134.4173
" />
</g><text x="286.0022" y="185.6500"
textLength="1.4972" font-size="1.7333" lengthAdjust="spacingAndGlyphs"
text-anchor="middle" opacity="0" stroke-opacity="0">D</text>
<g class="stroked-text"><desc>D</desc>
<path d="M285.6617 185.5935
L285.6617 184.2935
" />
<path d="M285.6617 184.2935
L285.9712 184.2935
" />
<path d="M285.9712 184.2935
L286.1569 184.3554
" />
<path d="M286.1569 184.3554
L286.2807 184.4792
" />
<path d="M286.2807 184.4792
L286.3426 184.6030
" />
<path d="M286.3426 184.6030
L286.4045 184.8506
" />
<path d="M286.4045 184.8506
L286.4045 185.0363
" />
<path d="M286.4045 185.0363
L286.3426 185.2839
" />
<path d="M286.3426 185.2839
L286.2807 185.4077
" />
<path d="M286.2807 185.4077
L286.1569 185.5316
" />
<path d="M286.1569 185.5316
L285.9712 185.5935
" />
<path d="M285.9712 185.5935
L285.6617 185.5935
" />
</g><text x="200.0022" y="193.8572"
textLength="7.0143" font-size="2.0000" lengthAdjust="spacingAndGlyphs"
text-anchor="start" opacity="0" stroke-opacity="0">Date: </text>
<g class="stroked-text"><desc>Date: </desc>
<path d="M200.4595 193.7931
L200.4595 192.2931
" />
<path d="M200.4595 192.2931
L200.8166 192.2931
" />
<path d="M200.8166 192.2931
L201.0309 192.3645
" />
<path d="M201.0309 192.3645
L201.1738 192.5074
" />
<path d="M201.1738 192.5074
L201.2452 192.6502
" />
<path d="M201.2452 192.6502
L201.3166 192.9359
" />
<path d="M201.3166 192.9359
L201.3166 193.1502
" />
<path d="M201.3166 193.1502
L201.2452 193.4359
" />
<path d="M201.2452 193.4359
L201.1738 193.5788
" />
<path d="M201.1738 193.5788
L201.0309 193.7217
" />
<path d="M201.0309 193.7217
L200.8166 193.7931
" />
<path d="M200.8166 193.7931
L200.4595 193.7931
" />
<path d="M202.6024 193.7931
L202.6024 193.0074
" />
<path d="M202.6024 193.0074
L202.5309 192.8645
" />
<path d="M202.5309 192.8645
L202.3881 192.7931
" />
<path d="M202.3881 192.7931
L202.1024 192.7931
" />
<path d="M202.1024 192.7931
L201.9595 192.8645
" />
<path d="M202.6024 193.7217
L202.4595 193.7931
" />
<path d="M202.4595 193.7931
L202.1024 193.7931
" />
<path d="M202.1024 193.7931
L201.9595 193.7217
" />
<path d="M201.9595 193.7217
L201.8881 193.5788
" />
<path d="M201.8881 193.5788
L201.8881 193.4359
" />
<path d="M201.8881 193.4359
L201.9595 193.2931
" />
<path d="M201.9595 193.2931
L202.1024 193.2217
" />
<path d="M202.1024 193.2217
L202.4595 193.2217
" />
<path d="M202.4595 193.2217
L202.6024 193.1502
" />
<path d="M203.1023 192.7931
L203.6737 192.7931
" />
<path d="M203.3166 192.2931
L203.3166 193.5788
" />
<path d="M203.3166 193.5788
L203.3880 193.7217
" />
<path d="M203.3880 193.7217
L203.5309 193.7931
" />
<path d="M203.5309 193.7931
L203.6737 193.7931
" />
<path d="M204.7451 193.7217
L204.6023 193.7931
" />
<path d="M204.6023 193.7931
L204.3166 193.7931
" />
<path d="M204.3166 193.7931
L204.1737 193.7217
" />
<path d="M204.1737 193.7217
L204.1023 193.5788
" />
<path d="M204.1023 193.5788
L204.1023 193.0074
" />
<path d="M204.1023 193.0074
L204.1737 192.8645
" />
<path d="M204.1737 192.8645
L204.3166 192.7931
" />
<path d="M204.3166 192.7931
L204.6023 192.7931
" />
<path d="M204.6023 192.7931
L204.7451 192.8645
" />
<path d="M204.7451 192.8645
L204.8166 193.0074
" />
<path d="M204.8166 193.0074
L204.8166 193.1502
" />
<path d="M204.8166 193.1502
L204.1023 193.2931
" />
<path d="M205.4594 193.6502
L205.5308 193.7217
" />
<path d="M205.5308 193.7217
L205.4594 193.7931
" />
<path d="M205.4594 193.7931
L205.3880 193.7217
" />
<path d="M205.3880 193.7217
L205.4594 193.6502
" />
<path d="M205.4594 193.6502
L205.4594 193.7931
" />
<path d="M205.4594 192.8645
L205.5308 192.9359
" />
<path d="M205.5308 192.9359
L205.4594 193.0074
" />
<path d="M205.4594 193.0074
L205.3880 192.9359
" />
<path d="M205.3880 192.9359
L205.4594 192.8645
" />
<path d="M205.4594 192.8645
L205.4594 193.0074
" />
</g><path d="M177.0022 194.5072
L285.0022 194.5072
" />
<text x="178.0022" y="196.6572"
textLength="20.8716" font-size="2.0000" lengthAdjust="spacingAndGlyphs"
text-anchor="start" opacity="0" stroke-opacity="0">KiCad E.D.A. 9.0.5</text>
<g class="stroked-text"><desc>KiCad E.D.A. 9.0.5</desc>
<path d="M178.4595 196.5931
L178.4595 195.0931
" />
<path d="M179.3166 196.5931
L178.6738 195.7359
" />
<path d="M179.3166 195.0931
L178.4595 195.9502
" />
<path d="M179.9595 196.5931
L179.9595 195.5931
" />
<path d="M179.9595 195.0931
L179.8881 195.1645
" />
<path d="M179.8881 195.1645
L179.9595 195.2359
" />
<path d="M179.9595 195.2359
L180.0309 195.1645
" />
<path d="M180.0309 195.1645
L179.9595 195.0931
" />
<path d="M179.9595 195.0931
L179.9595 195.2359
" />
<path d="M181.5309 196.4502
L181.4595 196.5217
" />
<path d="M181.4595 196.5217
L181.2452 196.5931
" />
<path d="M181.2452 196.5931
L181.1024 196.5931
" />
<path d="M181.1024 196.5931
L180.8881 196.5217
" />
<path d="M180.8881 196.5217
L180.7452 196.3788
" />
<path d="M180.7452 196.3788
L180.6738 196.2359
" />
<path d="M180.6738 196.2359
L180.6024 195.9502
" />
<path d="M180.6024 195.9502
L180.6024 195.7359
" />
<path d="M180.6024 195.7359
L180.6738 195.4502
" />
<path d="M180.6738 195.4502
L180.7452 195.3074
" />
<path d="M180.7452 195.3074
L180.8881 195.1645
" />
<path d="M180.8881 195.1645
L181.1024 195.0931
" />
<path d="M181.1024 195.0931
L181.2452 195.0931
" />
<path d="M181.2452 195.0931
L181.4595 195.1645
" />
<path d="M181.4595 195.1645
L181.5309 195.2359
" />
<path d="M182.8167 196.5931
L182.8167 195.8074
" />
<path d="M182.8167 195.8074
L182.7452 195.6645
" />
<path d="M182.7452 195.6645
L182.6024 195.5931
" />
<path d="M182.6024 195.5931
L182.3167 195.5931
" />
<path d="M182.3167 195.5931
L182.1738 195.6645
" />
<path d="M182.8167 196.5217
L182.6738 196.5931
" />
<path d="M182.6738 196.5931
L182.3167 196.5931
" />
<path d="M182.3167 196.5931
L182.1738 196.5217
" />
<path d="M182.1738 196.5217
L182.1024 196.3788
" />
<path d="M182.1024 196.3788
L182.1024 196.2359
" />
<path d="M182.1024 196.2359
L182.1738 196.0931
" />
<path d="M182.1738 196.0931
L182.3167 196.0217
" />
<path d="M182.3167 196.0217
L182.6738 196.0217
" />
<path d="M182.6738 196.0217
L182.8167 195.9502
" />
<path d="M184.1738 196.5931
L184.1738 195.0931
" />
<path d="M184.1738 196.5217
L184.0309 196.5931
" />
<path d="M184.0309 196.5931
L183.7452 196.5931
" />
<path d="M183.7452 196.5931
L183.6023 196.5217
" />
<path d="M183.6023 196.5217
L183.5309 196.4502
" />
<path d="M183.5309 196.4502
L183.4595 196.3074
" />
<path d="M183.4595 196.3074
L183.4595 195.8788
" />
<path d="M183.4595 195.8788
L183.5309 195.7359
" />
<path d="M183.5309 195.7359
L183.6023 195.6645
" />
<path d="M183.6023 195.6645
L183.7452 195.5931
" />
<path d="M183.7452 195.5931
L184.0309 195.5931
" />
<path d="M184.0309 195.5931
L184.1738 195.6645
" />
<path d="M186.0309 195.8074
L186.5309 195.8074
" />
<path d="M186.7452 196.5931
L186.0309 196.5931
" />
<path d="M186.0309 196.5931
L186.0309 195.0931
" />
<path d="M186.0309 195.0931
L186.7452 195.0931
" />
<path d="M187.3880 196.4502
L187.4594 196.5217
" />
<path d="M187.4594 196.5217
L187.3880 196.5931
" />
<path d="M187.3880 196.5931
L187.3166 196.5217
" />
<path d="M187.3166 196.5217
L187.3880 196.4502
" />
<path d="M187.3880 196.4502
L187.3880 196.5931
" />
<path d="M188.1023 196.5931
L188.1023 195.0931
" />
<path d="M188.1023 195.0931
L188.4594 195.0931
" />
<path d="M188.4594 195.0931
L188.6737 195.1645
" />
<path d="M188.6737 195.1645
L188.8166 195.3074
" />
<path d="M188.8166 195.3074
L188.8880 195.4502
" />
<path d="M188.8880 195.4502
L188.9594 195.7359
" />
<path d="M188.9594 195.7359
L188.9594 195.9502
" />
<path d="M188.9594 195.9502
L188.8880 196.2359
" />
<path d="M188.8880 196.2359
L188.8166 196.3788
" />
<path d="M188.8166 196.3788
L188.6737 196.5217
" />
<path d="M188.6737 196.5217
L188.4594 196.5931
" />
<path d="M188.4594 196.5931
L188.1023 196.5931
" />
<path d="M189.6023 196.4502
L189.6737 196.5217
" />
<path d="M189.6737 196.5217
L189.6023 196.5931
" />
<path d="M189.6023 196.5931
L189.5309 196.5217
" />
<path d="M189.5309 196.5217
L189.6023 196.4502
" />
<path d="M189.6023 196.4502
L189.6023 196.5931
" />
<path d="M190.2452 196.1645
L190.9595 196.1645
" />
<path d="M190.1023 196.5931
L190.6023 195.0931
" />
<path d="M190.6023 195.0931
L191.1023 196.5931
" />
<path d="M191.6023 196.4502
L191.6737 196.5217
" />
<path d="M191.6737 196.5217
L191.6023 196.5931
" />
<path d="M191.6023 196.5931
L191.5309 196.5217
" />
<path d="M191.5309 196.5217
L191.6023 196.4502
" />
<path d="M191.6023 196.4502
L191.6023 196.5931
" />
<path d="M193.5309 196.5931
L193.8166 196.5931
" />
<path d="M193.8166 196.5931
L193.9595 196.5217
" />
<path d="M193.9595 196.5217
L194.0309 196.4502
" />
<path d="M194.0309 196.4502
L194.1738 196.2359
" />
<path d="M194.1738 196.2359
L194.2452 195.9502
" />
<path d="M194.2452 195.9502
L194.2452 195.3788
" />
<path d="M194.2452 195.3788
L194.1738 195.2359
" />
<path d="M194.1738 195.2359
L194.1024 195.1645
" />
<path d="M194.1024 195.1645
L193.9595 195.0931
" />
<path d="M193.9595 195.0931
L193.6738 195.0931
" />
<path d="M193.6738 195.0931
L193.5309 195.1645
" />
<path d="M193.5309 195.1645
L193.4595 195.2359
" />
<path d="M193.4595 195.2359
L193.3881 195.3788
" />
<path d="M193.3881 195.3788
L193.3881 195.7359
" />
<path d="M193.3881 195.7359
L193.4595 195.8788
" />
<path d="M193.4595 195.8788
L193.5309 195.9502
" />
<path d="M193.5309 195.9502
L193.6738 196.0217
" />
<path d="M193.6738 196.0217
L193.9595 196.0217
" />
<path d="M193.9595 196.0217
L194.1024 195.9502
" />
<path d="M194.1024 195.9502
L194.1738 195.8788
" />
<path d="M194.1738 195.8788
L194.2452 195.7359
" />
<path d="M194.8881 196.4502
L194.9595 196.5217
" />
<path d="M194.9595 196.5217
L194.8881 196.5931
" />
<path d="M194.8881 196.5931
L194.8167 196.5217
" />
<path d="M194.8167 196.5217
L194.8881 196.4502
" />
<path d="M194.8881 196.4502
L194.8881 196.5931
" />
<path d="M195.8881 195.0931
L196.0310 195.0931
" />
<path d="M196.0310 195.0931
L196.1738 195.1645
" />
<path d="M196.1738 195.1645
L196.2453 195.2359
" />
<path d="M196.2453 195.2359
L196.3167 195.3788
" />
<path d="M196.3167 195.3788
L196.3881 195.6645
" />
<path d="M196.3881 195.6645
L196.3881 196.0217
" />
<path d="M196.3881 196.0217
L196.3167 196.3074
" />
<path d="M196.3167 196.3074
L196.2453 196.4502
" />
<path d="M196.2453 196.4502
L196.1738 196.5217
" />
<path d="M196.1738 196.5217
L196.0310 196.5931
" />
<path d="M196.0310 196.5931
L195.8881 196.5931
" />
<path d="M195.8881 196.5931
L195.7453 196.5217
" />
<path d="M195.7453 196.5217
L195.6738 196.4502
" />
<path d="M195.6738 196.4502
L195.6024 196.3074
" />
<path d="M195.6024 196.3074
L195.5310 196.0217
" />
<path d="M195.5310 196.0217
L195.5310 195.6645
" />
<path d="M195.5310 195.6645
L195.6024 195.3788
" />
<path d="M195.6024 195.3788
L195.6738 195.2359
" />
<path d="M195.6738 195.2359
L195.7453 195.1645
" />
<path d="M195.7453 195.1645
L195.8881 195.0931
" />
<path d="M197.0310 196.4502
L197.1024 196.5217
" />
<path d="M197.1024 196.5217
L197.0310 196.5931
" />
<path d="M197.0310 196.5931
L196.9596 196.5217
" />
<path d="M196.9596 196.5217
L197.0310 196.4502
" />
<path d="M197.0310 196.4502
L197.0310 196.5931
" />
<path d="M198.4596 195.0931
L197.7453 195.0931
" />
<path d="M197.7453 195.0931
L197.6739 195.8074
" />
<path d="M197.6739 195.8074
L197.7453 195.7359
" />
<path d="M197.7453 195.7359
L197.8882 195.6645
" />
<path d="M197.8882 195.6645
L198.2453 195.6645
" />
<path d="M198.2453 195.6645
L198.3882 195.7359
" />
<path d="M198.3882 195.7359
L198.4596 195.8074
" />
<path d="M198.4596 195.8074
L198.5310 195.9502
" />
<path d="M198.5310 195.9502
L198.5310 196.3074
" />
<path d="M198.5310 196.3074
L198.4596 196.4502
" />
<path d="M198.4596 196.4502
L198.3882 196.5217
" />
<path d="M198.3882 196.5217
L198.2453 196.5931
" />
<path d="M198.2453 196.5931
L197.8882 196.5931
" />
<path d="M197.8882 196.5931
L197.7453 196.5217
" />
<path d="M197.7453 196.5217
L197.6739 196.4502
" />
</g><path d="M177.0022 191.5072
L285.0022 191.5072
" />
</g>
<g style="fill:none; 
stroke:#840000; stroke-width:0.3000; stroke-opacity:1; 
stroke-linecap:round; stroke-linejoin:round;">
<text x="263.0022" y="193.8572"
textLength="6.3858" font-size="2.0000" lengthAdjust="spacingAndGlyphs"
text-anchor="start" opacity="0" stroke-opacity="0">Rev: </text>
<g class="stroked-text"><desc>Rev: </desc>
<path d="M264.4137 193.7855
L263.9137 193.0712
" />
<path d="M263.5566 193.7855
L263.5566 192.2855
" />
<path d="M263.5566 192.2855
L264.1280 192.2855
" />
<path d="M264.1280 192.2855
L264.2709 192.3569
" />
<path d="M264.2709 192.3569
L264.3423 192.4283
" />
<path d="M264.3423 192.4283
L264.4137 192.5712
" />
<path d="M264.4137 192.5712
L264.4137 192.7855
" />
<path d="M264.4137 192.7855
L264.3423 192.9283
" />
<path d="M264.3423 192.9283
L264.2709 192.9998
" />
<path d="M264.2709 192.9998
L264.1280 193.0712
" />
<path d="M264.1280 193.0712
L263.5566 193.0712
" />
<path d="M265.6280 193.7141
L265.4852 193.7855
" />
<path d="M265.4852 193.7855
L265.1995 193.7855
" />
<path d="M265.1995 193.7855
L265.0566 193.7141
" />
<path d="M265.0566 193.7141
L264.9852 193.5712
" />
<path d="M264.9852 193.5712
L264.9852 192.9998
" />
<path d="M264.9852 192.9998
L265.0566 192.8569
" />
<path d="M265.0566 192.8569
L265.1995 192.7855
" />
<path d="M265.1995 192.7855
L265.4852 192.7855
" />
<path d="M265.4852 192.7855
L265.6280 192.8569
" />
<path d="M265.6280 192.8569
L265.6995 192.9998
" />
<path d="M265.6995 192.9998
L265.6995 193.1426
" />
<path d="M265.6995 193.1426
L264.9852 193.2855
" />
<path d="M266.1994 192.7855
L266.5566 193.7855
" />
<path d="M266.5566 193.7855
L266.9137 192.7855
" />
<path d="M267.4852 193.6426
L267.5566 193.7141
" />
<path d="M267.5566 193.7141
L267.4852 193.7855
" />
<path d="M267.4852 193.7855
L267.4138 193.7141
" />
<path d="M267.4138 193.7141
L267.4852 193.6426
" />
<path d="M267.4852 193.6426
L267.4852 193.7855
" />
<path d="M267.4852 192.8569
L267.5566 192.9283
" />
<path d="M267.5566 192.9283
L267.4852 192.9998
" />
<path d="M267.4852 192.9998
L267.4138 192.9283
" />
<path d="M267.4138 192.9283
L267.4852 192.8569
" />
<path d="M267.4852 192.8569
L267.4852 192.9998
" />
</g></g>
<g style="fill:none; 
stroke:#840000; stroke-width:0.1524; stroke-opacity:1; 
stroke-linecap:round; stroke-linejoin:round;">
<text x="178.0022" y="193.8572"
textLength="9.3716" font-size="2.0000" lengthAdjust="spacingAndGlyphs"
text-anchor="start" opacity="0" stroke-opacity="0">Size: A4</text>
<g class="stroked-text"><desc>Size: A4</desc>
<path d="M178.3881 193.7217
L178.6024 193.7931
" />
<path d="M178.6024 193.7931
L178.9595 193.7931
" />
<path d="M178.9595 193.7931
L179.1024 193.7217
" />
<path d="M179.1024 193.7217
L179.1738 193.6502
" />
<path d="M179.1738 193.6502
L179.2452 193.5074
" />
<path d="M179.2452 193.5074
L179.2452 193.3645
" />
<path d="M179.2452 193.3645
L179.1738 193.2217
" />
<path d="M179.1738 193.2217
L179.1024 193.1502
" />
<path d="M179.1024 193.1502
L178.9595 193.0788
" />
<path d="M178.9595 193.0788
L178.6738 193.0074
" />
<path d="M178.6738 193.0074
L178.5309 192.9359
" />
<path d="M178.5309 192.9359
L178.4595 192.8645
" />
<path d="M178.4595 192.8645
L178.3881 192.7217
" />
<path d="M178.3881 192.7217
L178.3881 192.5788
" />
<path d="M178.3881 192.5788
L178.4595 192.4359
" />
<path d="M178.4595 192.4359
L178.5309 192.3645
" />
<path d="M178.5309 192.3645
L178.6738 192.2931
" />
<path d="M178.6738 192.2931
L179.0309 192.2931
" />
<path d="M179.0309 192.2931
L179.2452 192.3645
" />
<path d="M179.8881 193.7931
L179.8881 192.7931
" />
<path d="M179.8881 192.2931
L179.8167 192.3645
" />
<path d="M179.8167 192.3645
L179.8881 192.4359
" />
<path d="M179.8881 192.4359
L179.9595 192.3645
" />
<path d="M179.9595 192.3645
L179.8881 192.2931
" />
<path d="M179.8881 192.2931
L179.8881 192.4359
" />
<path d="M180.4595 192.7931
L181.2453 192.7931
" />
<path d="M181.2453 192.7931
L180.4595 193.7931
" />
<path d="M180.4595 193.7931
L181.2453 193.7931
" />
<path d="M182.3881 193.7217
L182.2453 193.7931
" />
<path d="M182.2453 193.7931
L181.9596 193.7931
" />
<path d="M181.9596 193.7931
L181.8167 193.7217
" />
<path d="M181.8167 193.7217
L181.7453 193.5788
" />
<path d="M181.7453 193.5788
L181.7453 193.0074
" />
<path d="M181.7453 193.0074
L181.8167 192.8645
" />
<path d="M181.8167 192.8645
L181.9596 192.7931
" />
<path d="M181.9596 192.7931
L182.2453 192.7931
" />
<path d="M182.2453 192.7931
L182.3881 192.8645
" />
<path d="M182.3881 192.8645
L182.4596 193.0074
" />
<path d="M182.4596 193.0074
L182.4596 193.1502
" />
<path d="M182.4596 193.1502
L181.7453 193.2931
" />
<path d="M183.1024 193.6502
L183.1738 193.7217
" />
<path d="M183.1738 193.7217
L183.1024 193.7931
" />
<path d="M183.1024 193.7931
L183.0310 193.7217
" />
<path d="M183.0310 193.7217
L183.1024 193.6502
" />
<path d="M183.1024 193.6502
L183.1024 193.7931
" />
<path d="M183.1024 192.8645
L183.1738 192.9359
" />
<path d="M183.1738 192.9359
L183.1024 193.0074
" />
<path d="M183.1024 193.0074
L183.0310 192.9359
" />
<path d="M183.0310 192.9359
L183.1024 192.8645
" />
<path d="M183.1024 192.8645
L183.1024 193.0074
" />
<path d="M184.8882 193.3645
L185.6025 193.3645
" />
<path d="M184.7453 193.7931
L185.2453 192.2931
" />
<path d="M185.2453 192.2931
L185.7453 193.7931
" />
<path d="M186.8882 192.7931
L186.8882 193.7931
" />
<path d="M186.5310 192.2217
L186.1739 193.2931
" />
<path d="M186.1739 193.2931
L187.1024 193.2931
" />
</g><text x="263.0022" y="196.6572"
textLength="8.5144" font-size="2.0000" lengthAdjust="spacingAndGlyphs"
text-anchor="start" opacity="0" stroke-opacity="0">Id: 1/1</text>
<g class="stroked-text"><desc>Id: 1/1</desc>
<path d="M263.4595 196.5931
L263.4595 195.0931
" />
<path d="M264.8167 196.5931
L264.8167 195.0931
" />
<path d="M264.8167 196.5217
L264.6738 196.5931
" />
<path d="M264.6738 196.5931
L264.3881 196.5931
" />
<path d="M264.3881 196.5931
L264.2452 196.5217
" />
<path d="M264.2452 196.5217
L264.1738 196.4502
" />
<path d="M264.1738 196.4502
L264.1024 196.3074
" />
<path d="M264.1024 196.3074
L264.1024 195.8788
" />
<path d="M264.1024 195.8788
L264.1738 195.7359
" />
<path d="M264.1738 195.7359
L264.2452 195.6645
" />
<path d="M264.2452 195.6645
L264.3881 195.5931
" />
<path d="M264.3881 195.5931
L264.6738 195.5931
" />
<path d="M264.6738 195.5931
L264.8167 195.6645
" />
<path d="M265.5309 196.4502
L265.6023 196.5217
" />
<path d="M265.6023 196.5217
L265.5309 196.5931
" />
<path d="M265.5309 196.5931
L265.4595 196.5217
" />
<path d="M265.4595 196.5217
L265.5309 196.4502
" />
<path d="M265.5309 196.4502
L265.5309 196.5931
" />
<path d="M265.5309 195.6645
L265.6023 195.7359
" />
<path d="M265.6023 195.7359
L265.5309 195.8074
" />
<path d="M265.5309 195.8074
L265.4595 195.7359
" />
<path d="M265.4595 195.7359
L265.5309 195.6645
" />
<path d="M265.5309 195.6645
L265.5309 195.8074
" />
<path d="M268.1738 196.5931
L267.3167 196.5931
" />
<path d="M267.7452 196.5931
L267.7452 195.0931
" />
<path d="M267.7452 195.0931
L267.6024 195.3074
" />
<path d="M267.6024 195.3074
L267.4595 195.4502
" />
<path d="M267.4595 195.4502
L267.3167 195.5217
" />
<path d="M269.8881 195.0217
L268.6024 196.9502
" />
<path d="M271.1738 196.5931
L270.3167 196.5931
" />
<path d="M270.7452 196.5931
L270.7452 195.0931
" />
<path d="M270.7452 195.0931
L270.6024 195.3074
" />
<path d="M270.6024 195.3074
L270.4595 195.4502
" />
<path d="M270.4595 195.4502
L270.3167 195.5217
" />
</g><path d="M177.0022 187.5072
L285.0022 187.5072
" />
</g>
<g style="fill:none; 
stroke:#840000; stroke-width:0.4000; stroke-opacity:1; 
stroke-linecap:round; stroke-linejoin:round;">
<text x="178.0022" y="190.3072"
textLength="9.6572" font-size="2.6666" lengthAdjust="spacingAndGlyphs"
text-anchor="start" opacity="0" stroke-opacity="0">Title: </text>
<g class="stroked-text"><desc>Title: </desc>
<path d="M178.6938 188.2116
L179.8367 188.2116
" />
<path d="M179.0153 190.2116
L179.2653 188.2116
" />
<path d="M180.2533 190.2116
L180.4200 188.8783
" />
<path d="M180.5033 188.2116
L180.3962 188.3068
" />
<path d="M180.3962 188.3068
L180.4795 188.4021
" />
<path d="M180.4795 188.4021
L180.5867 188.3068
" />
<path d="M180.5867 188.3068
L180.5033 188.2116
" />
<path d="M180.5033 188.2116
L180.4795 188.4021
" />
<path d="M181.0867 188.8783
L181.8486 188.8783
" />
<path d="M181.4557 188.2116
L181.2415 189.9259
" />
<path d="M181.2415 189.9259
L181.3129 190.1164
" />
<path d="M181.3129 190.1164
L181.4915 190.2116
" />
<path d="M181.4915 190.2116
L181.6819 190.2116
" />
<path d="M182.6344 190.2116
L182.4558 190.1164
" />
<path d="M182.4558 190.1164
L182.3844 189.9259
" />
<path d="M182.3844 189.9259
L182.5986 188.2116
" />
<path d="M184.1700 190.1164
L183.9677 190.2116
" />
<path d="M183.9677 190.2116
L183.5867 190.2116
" />
<path d="M183.5867 190.2116
L183.4081 190.1164
" />
<path d="M183.4081 190.1164
L183.3367 189.9259
" />
<path d="M183.3367 189.9259
L183.4320 189.1640
" />
<path d="M183.4320 189.1640
L183.5510 188.9735
" />
<path d="M183.5510 188.9735
L183.7534 188.8783
" />
<path d="M183.7534 188.8783
L184.1343 188.8783
" />
<path d="M184.1343 188.8783
L184.3129 188.9735
" />
<path d="M184.3129 188.9735
L184.3843 189.1640
" />
<path d="M184.3843 189.1640
L184.3605 189.3544
" />
<path d="M184.3605 189.3544
L183.3843 189.5449
" />
<path d="M185.1343 190.0211
L185.2177 190.1164
" />
<path d="M185.2177 190.1164
L185.1105 190.2116
" />
<path d="M185.1105 190.2116
L185.0272 190.1164
" />
<path d="M185.0272 190.1164
L185.1343 190.0211
" />
<path d="M185.1343 190.0211
L185.1105 190.2116
" />
<path d="M185.2653 188.9735
L185.3486 189.0687
" />
<path d="M185.3486 189.0687
L185.2415 189.1640
" />
<path d="M185.2415 189.1640
L185.1582 189.0687
" />
<path d="M185.1582 189.0687
L185.2653 188.9735
" />
<path d="M185.2653 188.9735
L185.2415 189.1640
" />
</g></g>
<g style="fill:none; 
stroke:#840000; stroke-width:0.1524; stroke-opacity:1; 
stroke-linecap:round; stroke-linejoin:round;">
<text x="178.0022" y="186.4572"
textLength="22.0143" font-size="2.0000" lengthAdjust="spacingAndGlyphs"
text-anchor="start" opacity="0" stroke-opacity="0">File: ew2.kicad_sch</text>
<g class="stroked-text"><desc>File: ew2.kicad_sch</desc>
<path d="M178.9595 185.6074
L178.4595 185.6074
" />
<path d="M178.4595 186.3931
L178.4595 184.8931
" />
<path d="M178.4595 184.8931
L179.1738 184.8931
" />
<path d="M179.7452 186.3931
L179.7452 185.3931
" />
<path d="M179.7452 184.8931
L179.6738 184.9645
" />
<path d="M179.6738 184.9645
L179.7452 185.0359
" />
<path d="M179.7452 185.0359
L179.8166 184.9645
" />
<path d="M179.8166 184.9645
L179.7452 184.8931
" />
<path d="M179.7452 184.8931
L179.7452 185.0359
" />
<path d="M180.6738 186.3931
L180.5309 186.3217
" />
<path d="M180.5309 186.3217
L180.4595 186.1788
" />
<path d="M180.4595 186.1788
L180.4595 184.8931
" />
<path d="M181.8166 186.3217
L181.6738 186.3931
" />
<path d="M181.6738 186.3931
L181.3881 186.3931
" />
<path d="M181.3881 186.3931
L181.2452 186.3217
" />
<path d="M181.2452 186.3217
L181.1738 186.1788
" />
<path d="M181.1738 186.1788
L181.1738 185.6074
" />
<path d="M181.1738 185.6074
L181.2452 185.4645
" />
<path d="M181.2452 185.4645
L181.3881 185.3931
" />
<path d="M181.3881 185.3931
L181.6738 185.3931
" />
<path d="M181.6738 185.3931
L181.8166 185.4645
" />
<path d="M181.8166 185.4645
L181.8881 185.6074
" />
<path d="M181.8881 185.6074
L181.8881 185.7502
" />
<path d="M181.8881 185.7502
L181.1738 185.8931
" />
<path d="M182.5309 186.2502
L182.6023 186.3217
" />
<path d="M182.6023 186.3217
L182.5309 186.3931
" />
<path d="M182.5309 186.3931
L182.4595 186.3217
" />
<path d="M182.4595 186.3217
L182.5309 186.2502
" />
<path d="M182.5309 186.2502
L182.5309 186.3931
" />
<path d="M182.5309 185.4645
L182.6023 185.5359
" />
<path d="M182.6023 185.5359
L182.5309 185.6074
" />
<path d="M182.5309 185.6074
L182.4595 185.5359
" />
<path d="M182.4595 185.5359
L182.5309 185.4645
" />
<path d="M182.5309 185.4645
L182.5309 185.6074
" />
<path d="M184.9595 186.3217
L184.8167 186.3931
" />
<path d="M184.8167 186.3931
L184.5310 186.3931
" />
<path d="M184.5310 186.3931
L184.3881 186.3217
" />
<path d="M184.3881 186.3217
L184.3167 186.1788
" />
<path d="M184.3167 186.1788
L184.3167 185.6074
" />
<path d="M184.3167 185.6074
L184.3881 185.4645
" />
<path d="M184.3881 185.4645
L184.5310 185.3931
" />
<path d="M184.5310 185.3931
L184.8167 185.3931
" />
<path d="M184.8167 185.3931
L184.9595 185.4645
" />
<path d="M184.9595 185.4645
L185.0310 185.6074
" />
<path d="M185.0310 185.6074
L185.0310 185.7502
" />
<path d="M185.0310 185.7502
L184.3167 185.8931
" />
<path d="M185.5309 185.3931
L185.8167 186.3931
" />
<path d="M185.8167 186.3931
L186.1024 185.6788
" />
<path d="M186.1024 185.6788
L186.3881 186.3931
" />
<path d="M186.3881 186.3931
L186.6738 185.3931
" />
<path d="M187.1738 185.0359
L187.2452 184.9645
" />
<path d="M187.2452 184.9645
L187.3881 184.8931
" />
<path d="M187.3881 184.8931
L187.7452 184.8931
" />
<path d="M187.7452 184.8931
L187.8881 184.9645
" />
<path d="M187.8881 184.9645
L187.9595 185.0359
" />
<path d="M187.9595 185.0359
L188.0309 185.1788
" />
<path d="M188.0309 185.1788
L188.0309 185.3217
" />
<path d="M188.0309 185.3217
L187.9595 185.5359
" />
<path d="M187.9595 185.5359
L187.1023 186.3931
" />
<path d="M187.1023 186.3931
L188.0309 186.3931
" />
<path d="M188.6738 186.2502
L188.7452 186.3217
" />
<path d="M188.7452 186.3217
L188.6738 186.3931
" />
<path d="M188.6738 186.3931
L188.6024 186.3217
" />
<path d="M188.6024 186.3217
L188.6738 186.2502
" />
<path d="M188.6738 186.2502
L188.6738 186.3931
" />
<path d="M189.3881 186.3931
L189.3881 184.8931
" />
<path d="M189.5310 185.8217
L189.9595 186.3931
" />
<path d="M189.9595 185.3931
L189.3881 185.9645
" />
<path d="M190.6024 186.3931
L190.6024 185.3931
" />
<path d="M190.6024 184.8931
L190.5310 184.9645
" />
<path d="M190.5310 184.9645
L190.6024 185.0359
" />
<path d="M190.6024 185.0359
L190.6738 184.9645
" />
<path d="M190.6738 184.9645
L190.6024 184.8931
" />
<path d="M190.6024 184.8931
L190.6024 185.0359
" />
<path d="M191.9596 186.3217
L191.8167 186.3931
" />
<path d="M191.8167 186.3931
L191.5310 186.3931
" />
<path d="M191.5310 186.3931
L191.3881 186.3217
" />
<path d="M191.3881 186.3217
L191.3167 186.2502
" />
<path d="M191.3167 186.2502
L191.2453 186.1074
" />
<path d="M191.2453 186.1074
L191.2453 185.6788
" />
<path d="M191.2453 185.6788
L191.3167 185.5359
" />
<path d="M191.3167 185.5359
L191.3881 185.4645
" />
<path d="M191.3881 185.4645
L191.5310 185.3931
" />
<path d="M191.5310 185.3931
L191.8167 185.3931
" />
<path d="M191.8167 185.3931
L191.9596 185.4645
" />
<path d="M193.2453 186.3931
L193.2453 185.6074
" />
<path d="M193.2453 185.6074
L193.1738 185.4645
" />
<path d="M193.1738 185.4645
L193.0310 185.3931
" />
<path d="M193.0310 185.3931
L192.7453 185.3931
" />
<path d="M192.7453 185.3931
L192.6024 185.4645
" />
<path d="M193.2453 186.3217
L193.1024 186.3931
" />
<path d="M193.1024 186.3931
L192.7453 186.3931
" />
<path d="M192.7453 186.3931
L192.6024 186.3217
" />
<path d="M192.6024 186.3217
L192.5310 186.1788
" />
<path d="M192.5310 186.1788
L192.5310 186.0359
" />
<path d="M192.5310 186.0359
L192.6024 185.8931
" />
<path d="M192.6024 185.8931
L192.7453 185.8217
" />
<path d="M192.7453 185.8217
L193.1024 185.8217
" />
<path d="M193.1024 185.8217
L193.2453 185.7502
" />
<path d="M194.6024 186.3931
L194.6024 184.8931
" />
<path d="M194.6024 186.3217
L194.4595 186.3931
" />
<path d="M194.4595 186.3931
L194.1738 186.3931
" />
<path d="M194.1738 186.3931
L194.0309 186.3217
" />
<path d="M194.0309 186.3217
L193.9595 186.2502
" />
<path d="M193.9595 186.2502
L193.8881 186.1074
" />
<path d="M193.8881 186.1074
L193.8881 185.6788
" />
<path d="M193.8881 185.6788
L193.9595 185.5359
" />
<path d="M193.9595 185.5359
L194.0309 185.4645
" />
<path d="M194.0309 185.4645
L194.1738 185.3931
" />
<path d="M194.1738 185.3931
L194.4595 185.3931
" />
<path d="M194.4595 185.3931
L194.6024 185.4645
" />
<path d="M194.9595 186.5359
L196.1023 186.5359
" />
<path d="M196.3881 186.3217
L196.5309 186.3931
" />
<path d="M196.5309 186.3931
L196.8166 186.3931
" />
<path d="M196.8166 186.3931
L196.9595 186.3217
" />
<path d="M196.9595 186.3217
L197.0309 186.1788
" />
<path d="M197.0309 186.1788
L197.0309 186.1074
" />
<path d="M197.0309 186.1074
L196.9595 185.9645
" />
<path d="M196.9595 185.9645
L196.8166 185.8931
" />
<path d="M196.8166 185.8931
L196.6024 185.8931
" />
<path d="M196.6024 185.8931
L196.4595 185.8217
" />
<path d="M196.4595 185.8217
L196.3881 185.6788
" />
<path d="M196.3881 185.6788
L196.3881 185.6074
" />
<path d="M196.3881 185.6074
L196.4595 185.4645
" />
<path d="M196.4595 185.4645
L196.6024 185.3931
" />
<path d="M196.6024 185.3931
L196.8166 185.3931
" />
<path d="M196.8166 185.3931
L196.9595 185.4645
" />
<path d="M198.3167 186.3217
L198.1738 186.3931
" />
<path d="M198.1738 186.3931
L197.8881 186.3931
" />
<path d="M197.8881 186.3931
L197.7452 186.3217
" />
<path d="M197.7452 186.3217
L197.6738 186.2502
" />
<path d="M197.6738 186.2502
L197.6024 186.1074
" />
<path d="M197.6024 186.1074
L197.6024 185.6788
" />
<path d="M197.6024 185.6788
L197.6738 185.5359
" />
<path d="M197.6738 185.5359
L197.7452 185.4645
" />
<path d="M197.7452 185.4645
L197.8881 185.3931
" />
<path d="M197.8881 185.3931
L198.1738 185.3931
" />
<path d="M198.1738 185.3931
L198.3167 185.4645
" />
<path d="M198.9595 186.3931
L198.9595 184.8931
" />
<path d="M199.6024 186.3931
L199.6024 185.6074
" />
<path d="M199.6024 185.6074
L199.5309 185.4645
" />
<path d="M199.5309 185.4645
L199.3881 185.3931
" />
<path d="M199.3881 185.3931
L199.1738 185.3931
" />
<path d="M199.1738 185.3931
L199.0309 185.4645
" />
<path d="M199.0309 185.4645
L198.9595 185.5359
" />
</g><path d="M177.0022 181.5072
L285.0022 181.5072
" />
<text x="178.0022" y="183.7572"
textLength="9.8000" font-size="2.0000" lengthAdjust="spacingAndGlyphs"
text-anchor="start" opacity="0" stroke-opacity="0">Sheet: /</text>
<g class="stroked-text"><desc>Sheet: /</desc>
<path d="M178.3881 183.6217
L178.6024 183.6931
" />
<path d="M178.6024 183.6931
L178.9595 183.6931
" />
<path d="M178.9595 183.6931
L179.1024 183.6217
" />
<path d="M179.1024 183.6217
L179.1738 183.5502
" />
<path d="M179.1738 183.5502
L179.2452 183.4074
" />
<path d="M179.2452 183.4074
L179.2452 183.2645
" />
<path d="M179.2452 183.2645
L179.1738 183.1217
" />
<path d="M179.1738 183.1217
L179.1024 183.0502
" />
<path d="M179.1024 183.0502
L178.9595 182.9788
" />
<path d="M178.9595 182.9788
L178.6738 182.9074
" />
<path d="M178.6738 182.9074
L178.5309 182.8359
" />
<path d="M178.5309 182.8359
L178.4595 182.7645
" />
<path d="M178.4595 182.7645
L178.3881 182.6217
" />
<path d="M178.3881 182.6217
L178.3881 182.4788
" />
<path d="M178.3881 182.4788
L178.4595 182.3359
" />
<path d="M178.4595 182.3359
L178.5309 182.2645
" />
<path d="M178.5309 182.2645
L178.6738 182.1931
" />
<path d="M178.6738 182.1931
L179.0309 182.1931
" />
<path d="M179.0309 182.1931
L179.2452 182.2645
" />
<path d="M179.8881 183.6931
L179.8881 182.1931
" />
<path d="M180.5310 183.6931
L180.5310 182.9074
" />
<path d="M180.5310 182.9074
L180.4595 182.7645
" />
<path d="M180.4595 182.7645
L180.3167 182.6931
" />
<path d="M180.3167 182.6931
L180.1024 182.6931
" />
<path d="M180.1024 182.6931
L179.9595 182.7645
" />
<path d="M179.9595 182.7645
L179.8881 182.8359
" />
<path d="M181.8166 183.6217
L181.6738 183.6931
" />
<path d="M181.6738 183.6931
L181.3881 183.6931
" />
<path d="M181.3881 183.6931
L181.2452 183.6217
" />
<path d="M181.2452 183.6217
L181.1738 183.4788
" />
<path d="M181.1738 183.4788
L181.1738 182.9074
" />
<path d="M181.1738 182.9074
L181.2452 182.7645
" />
<path d="M181.2452 182.7645
L181.3881 182.6931
" />
<path d="M181.3881 182.6931
L181.6738 182.6931
" />
<path d="M181.6738 182.6931
L181.8166 182.7645
" />
<path d="M181.8166 182.7645
L181.8881 182.9074
" />
<path d="M181.8881 182.9074
L181.8881 183.0502
" />
<path d="M181.8881 183.0502
L181.1738 183.1931
" />
<path d="M183.1023 183.6217
L182.9595 183.6931
" />
<path d="M182.9595 183.6931
L182.6738 183.6931
" />
<path d="M182.6738 183.6931
L182.5309 183.6217
" />
<path d="M182.5309 183.6217
L182.4595 183.4788
" />
<path d="M182.4595 183.4788
L182.4595 182.9074
" />
<path d="M182.4595 182.9074
L182.5309 182.7645
" />
<path d="M182.5309 182.7645
L182.6738 182.6931
" />
<path d="M182.6738 182.6931
L182.9595 182.6931
" />
<path d="M182.9595 182.6931
L183.1023 182.7645
" />
<path d="M183.1023 182.7645
L183.1738 182.9074
" />
<path d="M183.1738 182.9074
L183.1738 183.0502
" />
<path d="M183.1738 183.0502
L182.4595 183.1931
" />
<path d="M183.6023 182.6931
L184.1737 182.6931
" />
<path d="M183.8166 182.1931
L183.8166 183.4788
" />
<path d="M183.8166 183.4788
L183.8880 183.6217
" />
<path d="M183.8880 183.6217
L184.0309 183.6931
" />
<path d="M184.0309 183.6931
L184.1737 183.6931
" />
<path d="M184.6737 183.5502
L184.7451 183.6217
" />
<path d="M184.7451 183.6217
L184.6737 183.6931
" />
<path d="M184.6737 183.6931
L184.6023 183.6217
" />
<path d="M184.6023 183.6217
L184.6737 183.5502
" />
<path d="M184.6737 183.5502
L184.6737 183.6931
" />
<path d="M184.6737 182.7645
L184.7451 182.8359
" />
<path d="M184.7451 182.8359
L184.6737 182.9074
" />
<path d="M184.6737 182.9074
L184.6023 182.8359
" />
<path d="M184.6023 182.8359
L184.6737 182.7645
" />
<path d="M184.6737 182.7645
L184.6737 182.9074
" />
<path d="M187.6023 182.1217
L186.3166 184.0502
" />
</g></g>
<g style="fill:none; 
stroke:#840000; stroke-width:0.3000; stroke-opacity:1; 
stroke-linecap:round; stroke-linejoin:round;">
<text x="178.0022" y="180.7572"
textLength="0.9000" font-size="2.0000" lengthAdjust="spacingAndGlyphs"
text-anchor="start" opacity="0" stroke-opacity="0"></text>
<g class="stroked-text"><desc></desc>
</g></g>
<g style="fill:none; 
stroke:#840000; stroke-width:0.1524; stroke-opacity:1; 
stroke-linecap:round; stroke-linejoin:round;">
<text x="178.0022" y="177.7572"
textLength="0.4572" font-size="2.0000" lengthAdjust="spacingAndGlyphs"
text-anchor="start" opacity="0" stroke-opacity="0"></text>
<g class="stroked-text"><desc></desc>
</g><text x="178.0022" y="174.7572"
textLength="0.4572" font-size="2.0000" lengthAdjust="spacingAndGlyphs"
text-anchor="start" opacity="0" stroke-opacity="0"></text>
<g class="stroked-text"><desc></desc>
</g><text x="178.0022" y="171.7572"
textLength="0.4572" font-size="2.0000" lengthAdjust="spacingAndGlyphs"
text-anchor="start" opacity="0" stroke-opacity="0"></text>
<g class="stroked-text"><desc></desc>
</g><text x="178.0022" y="168.7572"
textLength="0.4572" font-size="2.0000" lengthAdjust="spacingAndGlyphs"
text-anchor="start" opacity="0" stroke-opacity="0"></text>
<g class="stroked-text"><desc></desc>
</g><path d="M197.0022 191.5072
L197.0022 194.5072
" />
<path d="M261.0022 191.5072
L261.0022 198.0072
" />
</g>
<g style="fill:#FFFFC2; fill-opacity:1.0000; stroke:none;">
<rect x="100.330000" y="85.090000" width="2.540000" height="5.080000" rx="0.000000" />
</g>
<g style="fill:none; 
stroke:#840000; stroke-width:0.2540; stroke-opacity:1; 
stroke-linecap:round; stroke-linejoin:round;">
<rect x="100.330000" y="85.090000" width="2.540000" height="5.080000" rx="0.000000" />
<path style="fill:none; 
stroke:#840000; stroke-width:0.1524; stroke-opacity:1; 
stroke-linecap:round; stroke-linejoin:round;fill:none"
d="M 102.1334,89.2302
101.2698,88.3920
" /> 
<path style="fill:none; 
stroke:#840000; stroke-width:0.1524; stroke-opacity:1; 
stroke-linecap:round; stroke-linejoin:round;fill:none"
d="M 102.1334,86.6902
101.2698,85.8520
" /> 
<path style="fill:none; 
stroke:#840000; stroke-width:0.1524; stroke-opacity:1; 
stroke-linecap:round; stroke-linejoin:round;fill:none"
d="M 101.9556,89.4080
101.0920,88.5698
" /> 
<path style="fill:none; 
stroke:#840000; stroke-width:0.1524; stroke-opacity:1; 
stroke-linecap:round; stroke-linejoin:round;fill:none"
d="M 101.9556,86.8680
101.0920,86.0298
" /> 
</g>
<g style="fill:none; 
stroke:#840000; stroke-width:0.1524; stroke-opacity:1; 
stroke-linecap:round; stroke-linejoin:round;">
<circle cx="101.6000" cy="88.9000" r="0.6350" /> 
<circle cx="101.6000" cy="86.3600" r="0.6350" /> 
<path d="M102.8700 88.9000
L106.6800 88.9000
" />
</g>
<g style="fill:none; 
stroke:#A90000; stroke-width:0.1524; stroke-opacity:1; 
stroke-linecap:round; stroke-linejoin:round;">
<text x="104.7750" y="88.6460"
textLength="1.4127" font-size="1.6933" lengthAdjust="spacingAndGlyphs"
text-anchor="middle" opacity="0" stroke-opacity="0">1</text>
<g class="stroked-text"><desc>1</desc>
<path d="M105.1379 88.4825
L104.4122 88.4825
" />
<path d="M104.7750 88.4825
L104.7750 87.2125
" />
<path d="M104.7750 87.2125
L104.6541 87.3940
" />
<path d="M104.6541 87.3940
L104.5331 87.5149
" />
<path d="M104.5331 87.5149
L104.4122 87.5754
" />
</g></g>
<g style="fill:none; 
stroke:#840000; stroke-width:0.1524; stroke-opacity:1; 
stroke-linecap:round; stroke-linejoin:round;">
<path d="M102.8700 86.3600
L106.6800 86.3600
" />
</g>
<g style="fill:none; 
stroke:#A90000; stroke-width:0.1524; stroke-opacity:1; 
stroke-linecap:round; stroke-linejoin:round;">
<text x="104.7750" y="86.1060"
textLength="1.4127" font-size="1.6933" lengthAdjust="spacingAndGlyphs"
text-anchor="middle" opacity="0" stroke-opacity="0">2</text>
<g class="stroked-text"><desc>2</desc>
<path d="M104.4122 84.7935
L104.4726 84.7330
" />
<path d="M104.4726 84.7330
L104.5936 84.6725
" />
<path d="M104.5936 84.6725
L104.8960 84.6725
" />
<path d="M104.8960 84.6725
L105.0169 84.7330
" />
<path d="M105.0169 84.7330
L105.0774 84.7935
" />
<path d="M105.0774 84.7935
L105.1379 84.9144
" />
<path d="M105.1379 84.9144
L105.1379 85.0354
" />
<path d="M105.1379 85.0354
L105.0774 85.2168
" />
<path d="M105.0774 85.2168
L104.3517 85.9425
" />
<path d="M104.3517 85.9425
L105.1379 85.9425
" />
</g></g>
<g style="fill:none; 
stroke:#006464; stroke-width:0.1524; stroke-opacity:1; 
stroke-linecap:round; stroke-linejoin:round;">
<text x="101.5999" y="80.6449"
textLength="2.3803" font-size="1.6933" lengthAdjust="spacingAndGlyphs"
text-anchor="middle" opacity="0" stroke-opacity="0">J1</text>
<g class="stroked-text"><desc>J1</desc>
<path d="M101.1766 79.3194
L101.1766 80.2266
" />
<path d="M101.1766 80.2266
L101.1161 80.4080
" />
<path d="M101.1161 80.4080
L100.9952 80.5290
" />
<path d="M100.9952 80.5290
L100.8137 80.5894
" />
<path d="M100.8137 80.5894
L100.6928 80.5894
" />
<path d="M102.4466 80.5894
L101.7209 80.5894
" />
<path d="M102.0837 80.5894
L102.0837 79.3194
" />
<path d="M102.0837 79.3194
L101.9628 79.5009
" />
<path d="M101.9628 79.5009
L101.8418 79.6218
" />
<path d="M101.8418 79.6218
L101.7209 79.6823
" />
</g><text x="101.6000" y="83.1849"
textLength="21.6116" font-size="1.6933" lengthAdjust="spacingAndGlyphs"
text-anchor="middle" opacity="0" stroke-opacity="0">Screw_Terminal_01x02</text>
<g class="stroked-text"><desc>Screw_Terminal_01x02</desc>
<path d="M91.1377 83.0690
L91.3191 83.1294
" />
<path d="M91.3191 83.1294
L91.6215 83.1294
" />
<path d="M91.6215 83.1294
L91.7424 83.0690
" />
<path d="M91.7424 83.0690
L91.8029 83.0085
" />
<path d="M91.8029 83.0085
L91.8634 82.8875
" />
<path d="M91.8634 82.8875
L91.8634 82.7666
" />
<path d="M91.8634 82.7666
L91.8029 82.6456
" />
<path d="M91.8029 82.6456
L91.7424 82.5851
" />
<path d="M91.7424 82.5851
L91.6215 82.5247
" />
<path d="M91.6215 82.5247
L91.3796 82.4642
" />
<path d="M91.3796 82.4642
L91.2586 82.4037
" />
<path d="M91.2586 82.4037
L91.1981 82.3432
" />
<path d="M91.1981 82.3432
L91.1377 82.2223
" />
<path d="M91.1377 82.2223
L91.1377 82.1013
" />
<path d="M91.1377 82.1013
L91.1981 81.9804
" />
<path d="M91.1981 81.9804
L91.2586 81.9199
" />
<path d="M91.2586 81.9199
L91.3796 81.8594
" />
<path d="M91.3796 81.8594
L91.6819 81.8594
" />
<path d="M91.6819 81.8594
L91.8634 81.9199
" />
<path d="M92.9519 83.0690
L92.8310 83.1294
" />
<path d="M92.8310 83.1294
L92.5891 83.1294
" />
<path d="M92.5891 83.1294
L92.4681 83.0690
" />
<path d="M92.4681 83.0690
L92.4076 83.0085
" />
<path d="M92.4076 83.0085
L92.3472 82.8875
" />
<path d="M92.3472 82.8875
L92.3472 82.5247
" />
<path d="M92.3472 82.5247
L92.4076 82.4037
" />
<path d="M92.4076 82.4037
L92.4681 82.3432
" />
<path d="M92.4681 82.3432
L92.5891 82.2828
" />
<path d="M92.5891 82.2828
L92.8310 82.2828
" />
<path d="M92.8310 82.2828
L92.9519 82.3432
" />
<path d="M93.4962 83.1294
L93.4962 82.2828
" />
<path d="M93.4962 82.5247
L93.5567 82.4037
" />
<path d="M93.5567 82.4037
L93.6172 82.3432
" />
<path d="M93.6172 82.3432
L93.7381 82.2828
" />
<path d="M93.7381 82.2828
L93.8591 82.2828
" />
<path d="M94.7662 83.0690
L94.6453 83.1294
" />
<path d="M94.6453 83.1294
L94.4034 83.1294
" />
<path d="M94.4034 83.1294
L94.2824 83.0690
" />
<path d="M94.2824 83.0690
L94.2220 82.9480
" />
<path d="M94.2220 82.9480
L94.2220 82.4642
" />
<path d="M94.2220 82.4642
L94.2824 82.3432
" />
<path d="M94.2824 82.3432
L94.4034 82.2828
" />
<path d="M94.4034 82.2828
L94.6453 82.2828
" />
<path d="M94.6453 82.2828
L94.7662 82.3432
" />
<path d="M94.7662 82.3432
L94.8267 82.4642
" />
<path d="M94.8267 82.4642
L94.8267 82.5851
" />
<path d="M94.8267 82.5851
L94.2220 82.7061
" />
<path d="M95.2501 82.2828
L95.4920 83.1294
" />
<path d="M95.4920 83.1294
L95.7339 82.5247
" />
<path d="M95.7339 82.5247
L95.9758 83.1294
" />
<path d="M95.9758 83.1294
L96.2177 82.2828
" />
<path d="M96.3992 83.2504
L97.3668 83.2504
" />
<path d="M97.4877 81.8594
L98.2134 81.8594
" />
<path d="M97.8506 83.1294
L97.8506 81.8594
" />
<path d="M99.1205 83.0690
L98.9996 83.1294
" />
<path d="M98.9996 83.1294
L98.7577 83.1294
" />
<path d="M98.7577 83.1294
L98.6367 83.0690
" />
<path d="M98.6367 83.0690
L98.5763 82.9480
" />
<path d="M98.5763 82.9480
L98.5763 82.4642
" />
<path d="M98.5763 82.4642
L98.6367 82.3432
" />
<path d="M98.6367 82.3432
L98.7577 82.2828
" />
<path d="M98.7577 82.2828
L98.9996 82.2828
" />
<path d="M98.9996 82.2828
L99.1205 82.3432
" />
<path d="M99.1205 82.3432
L99.1810 82.4642
" />
<path d="M99.1810 82.4642
L99.1810 82.5851
" />
<path d="M99.1810 82.5851
L98.5763 82.7061
" />
<path d="M99.7253 83.1294
L99.7253 82.2828
" />
<path d="M99.7253 82.5247
L99.7858 82.4037
" />
<path d="M99.7858 82.4037
L99.8463 82.3432
" />
<path d="M99.8463 82.3432
L99.9672 82.2828
" />
<path d="M99.9672 82.2828
L100.0882 82.2828
" />
<path d="M100.5115 83.1294
L100.5115 82.2828
" />
<path d="M100.5115 82.4037
L100.5720 82.3432
" />
<path d="M100.5720 82.3432
L100.6930 82.2828
" />
<path d="M100.6930 82.2828
L100.8744 82.2828
" />
<path d="M100.8744 82.2828
L100.9953 82.3432
" />
<path d="M100.9953 82.3432
L101.0558 82.4642
" />
<path d="M101.0558 82.4642
L101.0558 83.1294
" />
<path d="M101.0558 82.4642
L101.1163 82.3432
" />
<path d="M101.1163 82.3432
L101.2372 82.2828
" />
<path d="M101.2372 82.2828
L101.4187 82.2828
" />
<path d="M101.4187 82.2828
L101.5396 82.3432
" />
<path d="M101.5396 82.3432
L101.6001 82.4642
" />
<path d="M101.6001 82.4642
L101.6001 83.1294
" />
<path d="M102.2048 83.1294
L102.2048 82.2828
" />
<path d="M102.2048 81.8594
L102.1444 81.9199
" />
<path d="M102.1444 81.9199
L102.2048 81.9804
" />
<path d="M102.2048 81.9804
L102.2653 81.9199
" />
<path d="M102.2653 81.9199
L102.2048 81.8594
" />
<path d="M102.2048 81.8594
L102.2048 81.9804
" />
<path d="M102.8096 82.2828
L102.8096 83.1294
" />
<path d="M102.8096 82.4037
L102.8701 82.3432
" />
<path d="M102.8701 82.3432
L102.9911 82.2828
" />
<path d="M102.9911 82.2828
L103.1725 82.2828
" />
<path d="M103.1725 82.2828
L103.2934 82.3432
" />
<path d="M103.2934 82.3432
L103.3539 82.4642
" />
<path d="M103.3539 82.4642
L103.3539 83.1294
" />
<path d="M104.5029 83.1294
L104.5029 82.4642
" />
<path d="M104.5029 82.4642
L104.4424 82.3432
" />
<path d="M104.4424 82.3432
L104.3215 82.2828
" />
<path d="M104.3215 82.2828
L104.0796 82.2828
" />
<path d="M104.0796 82.2828
L103.9586 82.3432
" />
<path d="M104.5029 83.0690
L104.3820 83.1294
" />
<path d="M104.3820 83.1294
L104.0796 83.1294
" />
<path d="M104.0796 83.1294
L103.9586 83.0690
" />
<path d="M103.9586 83.0690
L103.8982 82.9480
" />
<path d="M103.8982 82.9480
L103.8982 82.8270
" />
<path d="M103.8982 82.8270
L103.9586 82.7061
" />
<path d="M103.9586 82.7061
L104.0796 82.6456
" />
<path d="M104.0796 82.6456
L104.3820 82.6456
" />
<path d="M104.3820 82.6456
L104.5029 82.5851
" />
<path d="M105.2891 83.1294
L105.1681 83.0690
" />
<path d="M105.1681 83.0690
L105.1076 82.9480
" />
<path d="M105.1076 82.9480
L105.1076 81.8594
" />
<path d="M105.4705 83.2504
L106.4381 83.2504
" />
<path d="M106.9823 81.8594
L107.1033 81.8594
" />
<path d="M107.1033 81.8594
L107.2242 81.9199
" />
<path d="M107.2242 81.9199
L107.2847 81.9804
" />
<path d="M107.2847 81.9804
L107.3452 82.1013
" />
<path d="M107.3452 82.1013
L107.4057 82.3432
" />
<path d="M107.4057 82.3432
L107.4057 82.6456
" />
<path d="M107.4057 82.6456
L107.3452 82.8875
" />
<path d="M107.3452 82.8875
L107.2847 83.0085
" />
<path d="M107.2847 83.0085
L107.2242 83.0690
" />
<path d="M107.2242 83.0690
L107.1033 83.1294
" />
<path d="M107.1033 83.1294
L106.9823 83.1294
" />
<path d="M106.9823 83.1294
L106.8614 83.0690
" />
<path d="M106.8614 83.0690
L106.8009 83.0085
" />
<path d="M106.8009 83.0085
L106.7404 82.8875
" />
<path d="M106.7404 82.8875
L106.6800 82.6456
" />
<path d="M106.6800 82.6456
L106.6800 82.3432
" />
<path d="M106.6800 82.3432
L106.7404 82.1013
" />
<path d="M106.7404 82.1013
L106.8009 81.9804
" />
<path d="M106.8009 81.9804
L106.8614 81.9199
" />
<path d="M106.8614 81.9199
L106.9823 81.8594
" />
<path d="M108.6152 83.1294
L107.8895 83.1294
" />
<path d="M108.2523 83.1294
L108.2523 81.8594
" />
<path d="M108.2523 81.8594
L108.1314 82.0409
" />
<path d="M108.1314 82.0409
L108.0104 82.1618
" />
<path d="M108.0104 82.1618
L107.8895 82.2223
" />
<path d="M109.0385 83.1294
L109.7037 82.2828
" />
<path d="M109.0385 82.2828
L109.7037 83.1294
" />
<path d="M110.4294 81.8594
L110.5504 81.8594
" />
<path d="M110.5504 81.8594
L110.6713 81.9199
" />
<path d="M110.6713 81.9199
L110.7318 81.9804
" />
<path d="M110.7318 81.9804
L110.7923 82.1013
" />
<path d="M110.7923 82.1013
L110.8528 82.3432
" />
<path d="M110.8528 82.3432
L110.8528 82.6456
" />
<path d="M110.8528 82.6456
L110.7923 82.8875
" />
<path d="M110.7923 82.8875
L110.7318 83.0085
" />
<path d="M110.7318 83.0085
L110.6713 83.0690
" />
<path d="M110.6713 83.0690
L110.5504 83.1294
" />
<path d="M110.5504 83.1294
L110.4294 83.1294
" />
<path d="M110.4294 83.1294
L110.3085 83.0690
" />
<path d="M110.3085 83.0690
L110.2480 83.0085
" />
<path d="M110.2480 83.0085
L110.1875 82.8875
" />
<path d="M110.1875 82.8875
L110.1271 82.6456
" />
<path d="M110.1271 82.6456
L110.1271 82.3432
" />
<path d="M110.1271 82.3432
L110.1875 82.1013
" />
<path d="M110.1875 82.1013
L110.2480 81.9804
" />
<path d="M110.2480 81.9804
L110.3085 81.9199
" />
<path d="M110.3085 81.9199
L110.4294 81.8594
" />
<path d="M111.3366 81.9804
L111.3970 81.9199
" />
<path d="M111.3970 81.9199
L111.5180 81.8594
" />
<path d="M111.5180 81.8594
L111.8204 81.8594
" />
<path d="M111.8204 81.8594
L111.9413 81.9199
" />
<path d="M111.9413 81.9199
L112.0018 81.9804
" />
<path d="M112.0018 81.9804
L112.0623 82.1013
" />
<path d="M112.0623 82.1013
L112.0623 82.2223
" />
<path d="M112.0623 82.2223
L112.0018 82.4037
" />
<path d="M112.0018 82.4037
L111.2761 83.1294
" />
<path d="M111.2761 83.1294
L112.0623 83.1294
" />
</g></g>
<g style="fill:none; 
stroke:#840000; stroke-width:0.2540; stroke-opacity:1; 
stroke-linecap:round; stroke-linejoin:round;">
<rect x="139.954000" y="85.090000" width="2.032000" height="5.080000" rx="0.000000" />
</g>
<g style="fill:none; 
stroke:#840000; stroke-width:0.1524; stroke-opacity:1; 
stroke-linecap:round; stroke-linejoin:round;">
<path d="M140.9700 85.0900
L140.9700 83.8200
" />
<path d="M140.9700 90.1700
L140.9700 91.4400
" />
</g>
<g style="fill:none; 
stroke:#006464; stroke-width:0.1524; stroke-opacity:1; 
stroke-linecap:round; stroke-linejoin:round;">
<text x="144.8609" y="86.9949"
textLength="2.6827" font-size="1.6933" lengthAdjust="spacingAndGlyphs"
text-anchor="middle" opacity="0" stroke-opacity="0">R1</text>
<g class="stroked-text"><desc>R1</desc>
<path d="M144.6492 86.9394
L144.2259 86.3347
" />
<path d="M143.9235 86.9394
L143.9235 85.6694
" />
<path d="M143.9235 85.6694
L144.4073 85.6694
" />
<path d="M144.4073 85.6694
L144.5283 85.7299
" />
<path d="M144.5283 85.7299
L144.5888 85.7904
" />
<path d="M144.5888 85.7904
L144.6492 85.9113
" />
<path d="M144.6492 85.9113
L144.6492 86.0928
" />
<path d="M144.6492 86.0928
L144.5888 86.2137
" />
<path d="M144.5888 86.2137
L144.5283 86.2742
" />
<path d="M144.5283 86.2742
L144.4073 86.3347
" />
<path d="M144.4073 86.3347
L143.9235 86.3347
" />
<path d="M145.8588 86.9394
L145.1331 86.9394
" />
<path d="M145.4959 86.9394
L145.4959 85.6694
" />
<path d="M145.4959 85.6694
L145.3750 85.8509
" />
<path d="M145.3750 85.8509
L145.2540 85.9718
" />
<path d="M145.2540 85.9718
L145.1331 86.0323
" />
</g><text x="145.6471" y="89.5349"
textLength="4.2551" font-size="1.6933" lengthAdjust="spacingAndGlyphs"
text-anchor="middle" opacity="0" stroke-opacity="0">1.2k</text>
<g class="stroked-text"><desc>1.2k</desc>
<path d="M144.5888 89.4794
L143.8631 89.4794
" />
<path d="M144.2259 89.4794
L144.2259 88.2094
" />
<path d="M144.2259 88.2094
L144.1050 88.3909
" />
<path d="M144.1050 88.3909
L143.9840 88.5118
" />
<path d="M143.9840 88.5118
L143.8631 88.5723
" />
<path d="M145.1330 89.3585
L145.1935 89.4190
" />
<path d="M145.1935 89.4190
L145.1330 89.4794
" />
<path d="M145.1330 89.4794
L145.0726 89.4190
" />
<path d="M145.0726 89.4190
L145.1330 89.3585
" />
<path d="M145.1330 89.3585
L145.1330 89.4794
" />
<path d="M145.6774 88.3304
L145.7378 88.2699
" />
<path d="M145.7378 88.2699
L145.8588 88.2094
" />
<path d="M145.8588 88.2094
L146.1612 88.2094
" />
<path d="M146.1612 88.2094
L146.2821 88.2699
" />
<path d="M146.2821 88.2699
L146.3426 88.3304
" />
<path d="M146.3426 88.3304
L146.4031 88.4513
" />
<path d="M146.4031 88.4513
L146.4031 88.5723
" />
<path d="M146.4031 88.5723
L146.3426 88.7537
" />
<path d="M146.3426 88.7537
L145.6169 89.4794
" />
<path d="M145.6169 89.4794
L146.4031 89.4794
" />
<path d="M146.9473 89.4794
L146.9473 88.2094
" />
<path d="M147.0683 88.9956
L147.4311 89.4794
" />
<path d="M147.4311 88.6328
L146.9473 89.1166
" />
</g><path style="fill:none; 
stroke:#840000; stroke-width:0.2540; stroke-opacity:1; 
stroke-linecap:round; stroke-linejoin:round;fill:none"
d="M 128.2700,80.0100
128.2700,77.4700
" /> 
<path style="fill:none; 
stroke:#840000; stroke-width:0.2540; stroke-opacity:1; 
stroke-linecap:round; stroke-linejoin:round;fill:none"
d="M 125.7300,80.0100
125.7300,77.4700
128.2700,78.7400
Z" /> 
<path style="fill:none; 
stroke:#840000; stroke-width:0.1524; stroke-opacity:1; 
stroke-linecap:round; stroke-linejoin:round;fill:none"
d="M 125.7300,78.7400
128.2700,78.7400
" /> 
</g>
<g style="fill:none; 
stroke:#840000; stroke-width:0.1524; stroke-opacity:1; 
stroke-linecap:round; stroke-linejoin:round;">
<path d="M128.2700 78.7400
L130.8100 78.7400
" />
<path d="M125.7300 78.7400
L123.1900 78.7400
" />
</g>
<g style="fill:none; 
stroke:#006464; stroke-width:0.1524; stroke-opacity:1; 
stroke-linecap:round; stroke-linejoin:round;">
<text x="126.9999" y="73.0249"
textLength="2.6827" font-size="1.6933" lengthAdjust="spacingAndGlyphs"
text-anchor="middle" opacity="0" stroke-opacity="0">D1</text>
<g class="stroked-text"><desc>D1</desc>
<path d="M126.0625 72.9694
L126.0625 71.6994
" />
<path d="M126.0625 71.6994
L126.3649 71.6994
" />
<path d="M126.3649 71.6994
L126.5463 71.7599
" />
<path d="M126.5463 71.7599
L126.6673 71.8809
" />
<path d="M126.6673 71.8809
L126.7278 72.0018
" />
<path d="M126.7278 72.0018
L126.7882 72.2437
" />
<path d="M126.7882 72.2437
L126.7882 72.4251
" />
<path d="M126.7882 72.4251
L126.7278 72.6670
" />
<path d="M126.7278 72.6670
L126.6673 72.7880
" />
<path d="M126.6673 72.7880
L126.5463 72.9090
" />
<path d="M126.5463 72.9090
L126.3649 72.9694
" />
<path d="M126.3649 72.9694
L126.0625 72.9694
" />
<path d="M127.9978 72.9694
L127.2721 72.9694
" />
<path d="M127.6349 72.9694
L127.6349 71.6994
" />
<path d="M127.6349 71.6994
L127.5140 71.8809
" />
<path d="M127.5140 71.8809
L127.3930 72.0018
" />
<path d="M127.3930 72.0018
L127.2721 72.0623
" />
</g><text x="127.0000" y="75.5649"
textLength="7.5812" font-size="1.6933" lengthAdjust="spacingAndGlyphs"
text-anchor="middle" opacity="0" stroke-opacity="0">1N4007</text>
<g class="stroked-text"><desc>1N4007</desc>
<path d="M124.2786 75.5094
L123.5529 75.5094
" />
<path d="M123.9157 75.5094
L123.9157 74.2394
" />
<path d="M123.9157 74.2394
L123.7948 74.4209
" />
<path d="M123.7948 74.4209
L123.6738 74.5418
" />
<path d="M123.6738 74.5418
L123.5529 74.6023
" />
<path d="M124.8228 75.5094
L124.8228 74.2394
" />
<path d="M124.8228 74.2394
L125.5485 75.5094
" />
<path d="M125.5485 75.5094
L125.5485 74.2394
" />
<path d="M126.6976 74.6628
L126.6976 75.5094
" />
<path d="M126.3952 74.1790
L126.0929 75.0861
" />
<path d="M126.0929 75.0861
L126.8790 75.0861
" />
<path d="M127.6047 74.2394
L127.7257 74.2394
" />
<path d="M127.7257 74.2394
L127.8466 74.2999
" />
<path d="M127.8466 74.2999
L127.9071 74.3604
" />
<path d="M127.9071 74.3604
L127.9676 74.4813
" />
<path d="M127.9676 74.4813
L128.0281 74.7232
" />
<path d="M128.0281 74.7232
L128.0281 75.0256
" />
<path d="M128.0281 75.0256
L127.9676 75.2675
" />
<path d="M127.9676 75.2675
L127.9071 75.3885
" />
<path d="M127.9071 75.3885
L127.8466 75.4490
" />
<path d="M127.8466 75.4490
L127.7257 75.5094
" />
<path d="M127.7257 75.5094
L127.6047 75.5094
" />
<path d="M127.6047 75.5094
L127.4838 75.4490
" />
<path d="M127.4838 75.4490
L127.4233 75.3885
" />
<path d="M127.4233 75.3885
L127.3628 75.2675
" />
<path d="M127.3628 75.2675
L127.3024 75.0256
" />
<path d="M127.3024 75.0256
L127.3024 74.7232
" />
<path d="M127.3024 74.7232
L127.3628 74.4813
" />
<path d="M127.3628 74.4813
L127.4233 74.3604
" />
<path d="M127.4233 74.3604
L127.4838 74.2999
" />
<path d="M127.4838 74.2999
L127.6047 74.2394
" />
<path d="M128.8142 74.2394
L128.9352 74.2394
" />
<path d="M128.9352 74.2394
L129.0561 74.2999
" />
<path d="M129.0561 74.2999
L129.1166 74.3604
" />
<path d="M129.1166 74.3604
L129.1771 74.4813
" />
<path d="M129.1771 74.4813
L129.2376 74.7232
" />
<path d="M129.2376 74.7232
L129.2376 75.0256
" />
<path d="M129.2376 75.0256
L129.1771 75.2675
" />
<path d="M129.1771 75.2675
L129.1166 75.3885
" />
<path d="M129.1166 75.3885
L129.0561 75.4490
" />
<path d="M129.0561 75.4490
L128.9352 75.5094
" />
<path d="M128.9352 75.5094
L128.8142 75.5094
" />
<path d="M128.8142 75.5094
L128.6933 75.4490
" />
<path d="M128.6933 75.4490
L128.6328 75.3885
" />
<path d="M128.6328 75.3885
L128.5723 75.2675
" />
<path d="M128.5723 75.2675
L128.5119 75.0256
" />
<path d="M128.5119 75.0256
L128.5119 74.7232
" />
<path d="M128.5119 74.7232
L128.5723 74.4813
" />
<path d="M128.5723 74.4813
L128.6328 74.3604
" />
<path d="M128.6328 74.3604
L128.6933 74.2999
" />
<path d="M128.6933 74.2999
L128.8142 74.2394
" />
<path d="M129.6609 74.2394
L130.5075 74.2394
" />
<path d="M130.5075 74.2394
L129.9633 75.5094
" />
</g></g>
<g style="fill:#FFFFC2; fill-opacity:1.0000; stroke:none;">
<rect x="163.830000" y="83.820000" width="2.540000" height="5.080000" rx="0.000000" />
</g>
<g style="fill:none; 
stroke:#840000; stroke-width:0.2540; stroke-opacity:1; 
stroke-linecap:round; stroke-linejoin:round;">
<rect x="163.830000" y="83.820000" width="2.540000" height="5.080000" rx="0.000000" />
<path style="fill:none; 
stroke:#840000; stroke-width:0.1524; stroke-opacity:1; 
stroke-linecap:round; stroke-linejoin:round;fill:none"
d="M 164.5666,84.7598
165.4302,85.5980
" /> 
<path style="fill:none; 
stroke:#840000; stroke-width:0.1524; stroke-opacity:1; 
stroke-linecap:round; stroke-linejoin:round;fill:none"
d="M 164.5666,87.2998
165.4302,88.1380
" /> 
<path style="fill:none; 
stroke:#840000; stroke-width:0.1524; stroke-opacity:1; 
stroke-linecap:round; stroke-linejoin:round;fill:none"
d="M 164.7444,84.5820
165.6080,85.4202
" /> 
<path style="fill:none; 
stroke:#840000; stroke-width:0.1524; stroke-opacity:1; 
stroke-linecap:round; stroke-linejoin:round;fill:none"
d="M 164.7444,87.1220
165.6080,87.9602
" /> 
</g>
<g style="fill:none; 
stroke:#840000; stroke-width:0.1524; stroke-opacity:1; 
stroke-linecap:round; stroke-linejoin:round;">
<circle cx="165.1000" cy="85.0900" r="0.6350" /> 
<circle cx="165.1000" cy="87.6300" r="0.6350" /> 
<path d="M163.8300 85.0900
L160.0200 85.0900
" />
</g>
<g style="fill:none; 
stroke:#A90000; stroke-width:0.1524; stroke-opacity:1; 
stroke-linecap:round; stroke-linejoin:round;">
<text x="161.9250" y="84.8360"
textLength="1.4127" font-size="1.6933" lengthAdjust="spacingAndGlyphs"
text-anchor="middle" opacity="0" stroke-opacity="0">1</text>
<g class="stroked-text"><desc>1</desc>
<path d="M162.2879 84.6725
L161.5622 84.6725
" />
<path d="M161.9250 84.6725
L161.9250 83.4025
" />
<path d="M161.9250 83.4025
L161.8041 83.5840
" />
<path d="M161.8041 83.5840
L161.6831 83.7049
" />
<path d="M161.6831 83.7049
L161.5622 83.7654
" />
</g></g>
<g style="fill:none; 
stroke:#840000; stroke-width:0.1524; stroke-opacity:1; 
stroke-linecap:round; stroke-linejoin:round;">
<path d="M163.8300 87.6300
L160.0200 87.6300
" />
</g>
<g style="fill:none; 
stroke:#A90000; stroke-width:0.1524; stroke-opacity:1; 
stroke-linecap:round; stroke-linejoin:round;">
<text x="161.9250" y="87.3760"
textLength="1.4127" font-size="1.6933" lengthAdjust="spacingAndGlyphs"
text-anchor="middle" opacity="0" stroke-opacity="0">2</text>
<g class="stroked-text"><desc>2</desc>
<path d="M161.5622 86.0635
L161.6226 86.0030
" />
<path d="M161.6226 86.0030
L161.7436 85.9425
" />
<path d="M161.7436 85.9425
L162.0460 85.9425
" />
<path d="M162.0460 85.9425
L162.1669 86.0030
" />
<path d="M162.1669 86.0030
L162.2274 86.0635
" />
<path d="M162.2274 86.0635
L162.2879 86.1844
" />
<path d="M162.2879 86.1844
L162.2879 86.3054
" />
<path d="M162.2879 86.3054
L162.2274 86.4868
" />
<path d="M162.2274 86.4868
L161.5017 87.2125
" />
<path d="M161.5017 87.2125
L162.2879 87.2125
" />
</g></g>
<g style="fill:none; 
stroke:#006464; stroke-width:0.1524; stroke-opacity:1; 
stroke-linecap:round; stroke-linejoin:round;">
<text x="168.8397" y="85.7249"
textLength="2.3803" font-size="1.6933" lengthAdjust="spacingAndGlyphs"
text-anchor="middle" opacity="0" stroke-opacity="0">J2</text>
<g class="stroked-text"><desc>J2</desc>
<path d="M168.4164 84.3994
L168.4164 85.3066
" />
<path d="M168.4164 85.3066
L168.3559 85.4880
" />
<path d="M168.3559 85.4880
L168.2350 85.6090
" />
<path d="M168.2350 85.6090
L168.0535 85.6694
" />
<path d="M168.0535 85.6694
L167.9326 85.6694
" />
<path d="M168.9607 84.5204
L169.0211 84.4599
" />
<path d="M169.0211 84.4599
L169.1421 84.3994
" />
<path d="M169.1421 84.3994
L169.4445 84.3994
" />
<path d="M169.4445 84.3994
L169.5654 84.4599
" />
<path d="M169.5654 84.4599
L169.6259 84.5204
" />
<path d="M169.6259 84.5204
L169.6864 84.6413
" />
<path d="M169.6864 84.6413
L169.6864 84.7623
" />
<path d="M169.6864 84.7623
L169.6259 84.9437
" />
<path d="M169.6259 84.9437
L168.9002 85.6694
" />
<path d="M168.9002 85.6694
L169.6864 85.6694
" />
</g><text x="178.4554" y="88.2649"
textLength="21.6116" font-size="1.6933" lengthAdjust="spacingAndGlyphs"
text-anchor="middle" opacity="0" stroke-opacity="0">Screw_Terminal_01x02</text>
<g class="stroked-text"><desc>Screw_Terminal_01x02</desc>
<path d="M167.9931 88.1490
L168.1745 88.2094
" />
<path d="M168.1745 88.2094
L168.4769 88.2094
" />
<path d="M168.4769 88.2094
L168.5978 88.1490
" />
<path d="M168.5978 88.1490
L168.6583 88.0885
" />
<path d="M168.6583 88.0885
L168.7188 87.9675
" />
<path d="M168.7188 87.9675
L168.7188 87.8466
" />
<path d="M168.7188 87.8466
L168.6583 87.7256
" />
<path d="M168.6583 87.7256
L168.5978 87.6651
" />
<path d="M168.5978 87.6651
L168.4769 87.6047
" />
<path d="M168.4769 87.6047
L168.2350 87.5442
" />
<path d="M168.2350 87.5442
L168.1140 87.4837
" />
<path d="M168.1140 87.4837
L168.0535 87.4232
" />
<path d="M168.0535 87.4232
L167.9931 87.3023
" />
<path d="M167.9931 87.3023
L167.9931 87.1813
" />
<path d="M167.9931 87.1813
L168.0535 87.0604
" />
<path d="M168.0535 87.0604
L168.1140 86.9999
" />
<path d="M168.1140 86.9999
L168.2350 86.9394
" />
<path d="M168.2350 86.9394
L168.5373 86.9394
" />
<path d="M168.5373 86.9394
L168.7188 86.9999
" />
<path d="M169.8073 88.1490
L169.6864 88.2094
" />
<path d="M169.6864 88.2094
L169.4445 88.2094
" />
<path d="M169.4445 88.2094
L169.3235 88.1490
" />
<path d="M169.3235 88.1490
L169.2630 88.0885
" />
<path d="M169.2630 88.0885
L169.2026 87.9675
" />
<path d="M169.2026 87.9675
L169.2026 87.6047
" />
<path d="M169.2026 87.6047
L169.2630 87.4837
" />
<path d="M169.2630 87.4837
L169.3235 87.4232
" />
<path d="M169.3235 87.4232
L169.4445 87.3628
" />
<path d="M169.4445 87.3628
L169.6864 87.3628
" />
<path d="M169.6864 87.3628
L169.8073 87.4232
" />
<path d="M170.3516 88.2094
L170.3516 87.3628
" />
<path d="M170.3516 87.6047
L170.4121 87.4837
" />
<path d="M170.4121 87.4837
L170.4726 87.4232
" />
<path d="M170.4726 87.4232
L170.5935 87.3628
" />
<path d="M170.5935 87.3628
L170.7145 87.3628
" />
<path d="M171.6216 88.1490
L171.5007 88.2094
" />
<path d="M171.5007 88.2094
L171.2588 88.2094
" />
<path d="M171.2588 88.2094
L171.1378 88.1490
" />
<path d="M171.1378 88.1490
L171.0774 88.0280
" />
<path d="M171.0774 88.0280
L171.0774 87.5442
" />
<path d="M171.0774 87.5442
L171.1378 87.4232
" />
<path d="M171.1378 87.4232
L171.2588 87.3628
" />
<path d="M171.2588 87.3628
L171.5007 87.3628
" />
<path d="M171.5007 87.3628
L171.6216 87.4232
" />
<path d="M171.6216 87.4232
L171.6821 87.5442
" />
<path d="M171.6821 87.5442
L171.6821 87.6651
" />
<path d="M171.6821 87.6651
L171.0774 87.7861
" />
<path d="M172.1055 87.3628
L172.3474 88.2094
" />
<path d="M172.3474 88.2094
L172.5893 87.6047
" />
<path d="M172.5893 87.6047
L172.8312 88.2094
" />
<path d="M172.8312 88.2094
L173.0731 87.3628
" />
<path d="M173.2546 88.3304
L174.2222 88.3304
" />
<path d="M174.3431 86.9394
L175.0688 86.9394
" />
<path d="M174.7060 88.2094
L174.7060 86.9394
" />
<path d="M175.9759 88.1490
L175.8550 88.2094
" />
<path d="M175.8550 88.2094
L175.6131 88.2094
" />
<path d="M175.6131 88.2094
L175.4921 88.1490
" />
<path d="M175.4921 88.1490
L175.4317 88.0280
" />
<path d="M175.4317 88.0280
L175.4317 87.5442
" />
<path d="M175.4317 87.5442
L175.4921 87.4232
" />
<path d="M175.4921 87.4232
L175.6131 87.3628
" />
<path d="M175.6131 87.3628
L175.8550 87.3628
" />
<path d="M175.8550 87.3628
L175.9759 87.4232
" />
<path d="M175.9759 87.4232
L176.0364 87.5442
" />
<path d="M176.0364 87.5442
L176.0364 87.6651
" />
<path d="M176.0364 87.6651
L175.4317 87.7861
" />
<path d="M176.5807 88.2094
L176.5807 87.3628
" />
<path d="M176.5807 87.6047
L176.6412 87.4837
" />
<path d="M176.6412 87.4837
L176.7017 87.4232
" />
<path d="M176.7017 87.4232
L176.8226 87.3628
" />
<path d="M176.8226 87.3628
L176.9436 87.3628
" />
<path d="M177.3669 88.2094
L177.3669 87.3628
" />
<path d="M177.3669 87.4837
L177.4274 87.4232
" />
<path d="M177.4274 87.4232
L177.5484 87.3628
" />
<path d="M177.5484 87.3628
L177.7298 87.3628
" />
<path d="M177.7298 87.3628
L177.8507 87.4232
" />
<path d="M177.8507 87.4232
L177.9112 87.5442
" />
<path d="M177.9112 87.5442
L177.9112 88.2094
" />
<path d="M177.9112 87.5442
L177.9717 87.4232
" />
<path d="M177.9717 87.4232
L178.0926 87.3628
" />
<path d="M178.0926 87.3628
L178.2741 87.3628
" />
<path d="M178.2741 87.3628
L178.3950 87.4232
" />
<path d="M178.3950 87.4232
L178.4555 87.5442
" />
<path d="M178.4555 87.5442
L178.4555 88.2094
" />
<path d="M179.0602 88.2094
L179.0602 87.3628
" />
<path d="M179.0602 86.9394
L178.9998 86.9999
" />
<path d="M178.9998 86.9999
L179.0602 87.0604
" />
<path d="M179.0602 87.0604
L179.1207 86.9999
" />
<path d="M179.1207 86.9999
L179.0602 86.9394
" />
<path d="M179.0602 86.9394
L179.0602 87.0604
" />
<path d="M179.6650 87.3628
L179.6650 88.2094
" />
<path d="M179.6650 87.4837
L179.7255 87.4232
" />
<path d="M179.7255 87.4232
L179.8465 87.3628
" />
<path d="M179.8465 87.3628
L180.0279 87.3628
" />
<path d="M180.0279 87.3628
L180.1488 87.4232
" />
<path d="M180.1488 87.4232
L180.2093 87.5442
" />
<path d="M180.2093 87.5442
L180.2093 88.2094
" />
<path d="M181.3583 88.2094
L181.3583 87.5442
" />
<path d="M181.3583 87.5442
L181.2978 87.4232
" />
<path d="M181.2978 87.4232
L181.1769 87.3628
" />
<path d="M181.1769 87.3628
L180.9350 87.3628
" />
<path d="M180.9350 87.3628
L180.8140 87.4232
" />
<path d="M181.3583 88.1490
L181.2374 88.2094
" />
<path d="M181.2374 88.2094
L180.9350 88.2094
" />
<path d="M180.9350 88.2094
L180.8140 88.1490
" />
<path d="M180.8140 88.1490
L180.7536 88.0280
" />
<path d="M180.7536 88.0280
L180.7536 87.9070
" />
<path d="M180.7536 87.9070
L180.8140 87.7861
" />
<path d="M180.8140 87.7861
L180.9350 87.7256
" />
<path d="M180.9350 87.7256
L181.2374 87.7256
" />
<path d="M181.2374 87.7256
L181.3583 87.6651
" />
<path d="M182.1445 88.2094
L182.0235 88.1490
" />
<path d="M182.0235 88.1490
L181.9630 88.0280
" />
<path d="M181.9630 88.0280
L181.9630 86.9394
" />
<path d="M182.3259 88.3304
L183.2935 88.3304
" />
<path d="M183.8377 86.9394
L183.9587 86.9394
" />
<path d="M183.9587 86.9394
L184.0796 86.9999
" />
<path d="M184.0796 86.9999
L184.1401 87.0604
" />
<path d="M184.1401 87.0604
L184.2006 87.1813
" />
<path d="M184.2006 87.1813
L184.2611 87.4232
" />
<path d="M184.2611 87.4232
L184.2611 87.7256
" />
<path d="M184.2611 87.7256
L184.2006 87.9675
" />
<path d="M184.2006 87.9675
L184.1401 88.0885
" />
<path d="M184.1401 88.0885
L184.0796 88.1490
" />
<path d="M184.0796 88.1490
L183.9587 88.2094
" />
<path d="M183.9587 88.2094
L183.8377 88.2094
" />
<path d="M183.8377 88.2094
L183.7168 88.1490
" />
<path d="M183.7168 88.1490
L183.6563 88.0885
" />
<path d="M183.6563 88.0885
L183.5958 87.9675
" />
<path d="M183.5958 87.9675
L183.5354 87.7256
" />
<path d="M183.5354 87.7256
L183.5354 87.4232
" />
<path d="M183.5354 87.4232
L183.5958 87.1813
" />
<path d="M183.5958 87.1813
L183.6563 87.0604
" />
<path d="M183.6563 87.0604
L183.7168 86.9999
" />
<path d="M183.7168 86.9999
L183.8377 86.9394
" />
<path d="M185.4706 88.2094
L184.7449 88.2094
" />
<path d="M185.1077 88.2094
L185.1077 86.9394
" />
<path d="M185.1077 86.9394
L184.9868 87.1209
" />
<path d="M184.9868 87.1209
L184.8658 87.2418
" />
<path d="M184.8658 87.2418
L184.7449 87.3023
" />
<path d="M185.8939 88.2094
L186.5591 87.3628
" />
<path d="M185.8939 87.3628
L186.5591 88.2094
" />
<path d="M187.2848 86.9394
L187.4058 86.9394
" />
<path d="M187.4058 86.9394
L187.5267 86.9999
" />
<path d="M187.5267 86.9999
L187.5872 87.0604
" />
<path d="M187.5872 87.0604
L187.6477 87.1813
" />
<path d="M187.6477 87.1813
L187.7082 87.4232
" />
<path d="M187.7082 87.4232
L187.7082 87.7256
" />
<path d="M187.7082 87.7256
L187.6477 87.9675
" />
<path d="M187.6477 87.9675
L187.5872 88.0885
" />
<path d="M187.5872 88.0885
L187.5267 88.1490
" />
<path d="M187.5267 88.1490
L187.4058 88.2094
" />
<path d="M187.4058 88.2094
L187.2848 88.2094
" />
<path d="M187.2848 88.2094
L187.1639 88.1490
" />
<path d="M187.1639 88.1490
L187.1034 88.0885
" />
<path d="M187.1034 88.0885
L187.0429 87.9675
" />
<path d="M187.0429 87.9675
L186.9825 87.7256
" />
<path d="M186.9825 87.7256
L186.9825 87.4232
" />
<path d="M186.9825 87.4232
L187.0429 87.1813
" />
<path d="M187.0429 87.1813
L187.1034 87.0604
" />
<path d="M187.1034 87.0604
L187.1639 86.9999
" />
<path d="M187.1639 86.9999
L187.2848 86.9394
" />
<path d="M188.1920 87.0604
L188.2524 86.9999
" />
<path d="M188.2524 86.9999
L188.3734 86.9394
" />
<path d="M188.3734 86.9394
L188.6758 86.9394
" />
<path d="M188.6758 86.9394
L188.7967 86.9999
" />
<path d="M188.7967 86.9999
L188.8572 87.0604
" />
<path d="M188.8572 87.0604
L188.9177 87.1813
" />
<path d="M188.9177 87.1813
L188.9177 87.3023
" />
<path d="M188.9177 87.3023
L188.8572 87.4837
" />
<path d="M188.8572 87.4837
L188.1315 88.2094
" />
<path d="M188.1315 88.2094
L188.9177 88.2094
" />
</g></g>
<g style="fill:none; 
stroke:#009600; stroke-width:0.1524; stroke-opacity:1; 
stroke-linecap:round; stroke-linejoin:round;">
<path d="M106.6800 86.3600
L119.3800 86.3600
" />
<path d="M106.6800 88.9000
L114.3000 88.9000
" />
<path d="M119.3800 86.3600
L119.3800 80.0100
" />
<path d="M114.3000 88.9000
L114.3000 91.4400
" />
<path d="M140.9700 91.4400
L160.0200 91.4400
" />
<path d="M140.9700 83.8200
L160.0200 83.8200
" />
<path d="M130.8100 78.7400
L140.9700 78.7400
" />
<path d="M119.3800 80.0100
L123.1900 80.0100
" />
<path d="M140.9700 78.7400
L140.9700 83.8200
" />
<path d="M114.3000 91.4400
L140.9700 91.4400
" />
<path d="M123.1900 80.0100
L123.1900 78.7400
" />
<path d="M160.0200 91.4400
L160.0200 87.6300
" />
<path d="M160.0200 83.8200
L160.0200 85.0900
" />
</g>
<g style="fill:none; 
stroke:#0000C2; stroke-width:0.1524; stroke-opacity:1; 
stroke-linecap:round; stroke-linejoin:round;">
<text x="101.3460" y="93.3490"
textLength="4.9807" font-size="1.6933" lengthAdjust="spacingAndGlyphs"
text-anchor="middle" opacity="0" stroke-opacity="0">Input</text>
<g class="stroked-text"><desc>Input</desc>
<path d="M99.2596 93.2935
L99.2596 92.0235
" />
<path d="M99.8644 92.4469
L99.8644 93.2935
" />
<path d="M99.8644 92.5678
L99.9249 92.5073
" />
<path d="M99.9249 92.5073
L100.0459 92.4469
" />
<path d="M100.0459 92.4469
L100.2273 92.4469
" />
<path d="M100.2273 92.4469
L100.3482 92.5073
" />
<path d="M100.3482 92.5073
L100.4087 92.6283
" />
<path d="M100.4087 92.6283
L100.4087 93.2935
" />
<path d="M101.0134 92.4469
L101.0134 93.7169
" />
<path d="M101.0134 92.5073
L101.1344 92.4469
" />
<path d="M101.1344 92.4469
L101.3763 92.4469
" />
<path d="M101.3763 92.4469
L101.4972 92.5073
" />
<path d="M101.4972 92.5073
L101.5577 92.5678
" />
<path d="M101.5577 92.5678
L101.6182 92.6888
" />
<path d="M101.6182 92.6888
L101.6182 93.0516
" />
<path d="M101.6182 93.0516
L101.5577 93.1726
" />
<path d="M101.5577 93.1726
L101.4972 93.2331
" />
<path d="M101.4972 93.2331
L101.3763 93.2935
" />
<path d="M101.3763 93.2935
L101.1344 93.2935
" />
<path d="M101.1344 93.2935
L101.0134 93.2331
" />
<path d="M102.7067 92.4469
L102.7067 93.2935
" />
<path d="M102.1624 92.4469
L102.1624 93.1121
" />
<path d="M102.1624 93.1121
L102.2229 93.2331
" />
<path d="M102.2229 93.2331
L102.3439 93.2935
" />
<path d="M102.3439 93.2935
L102.5253 93.2935
" />
<path d="M102.5253 93.2935
L102.6462 93.2331
" />
<path d="M102.6462 93.2331
L102.7067 93.1726
" />
<path d="M103.1300 92.4469
L103.6138 92.4469
" />
<path d="M103.3114 92.0235
L103.3114 93.1121
" />
<path d="M103.3114 93.1121
L103.3719 93.2331
" />
<path d="M103.3719 93.2331
L103.4929 93.2935
" />
<path d="M103.4929 93.2935
L103.6138 93.2935
" />
</g></g>
<g style="fill:none; 
stroke:#0000C2; stroke-width:0.1524; stroke-opacity:1; 
stroke-linecap:round; stroke-linejoin:round;">
<text x="165.6080" y="92.0790"
textLength="6.4321" font-size="1.6933" lengthAdjust="spacingAndGlyphs"
text-anchor="middle" opacity="0" stroke-opacity="0">Output</text>
<g class="stroked-text"><desc>Output</desc>
<path d="M163.0378 90.7535
L163.2797 90.7535
" />
<path d="M163.2797 90.7535
L163.4007 90.8140
" />
<path d="M163.4007 90.8140
L163.5216 90.9350
" />
<path d="M163.5216 90.9350
L163.5821 91.1769
" />
<path d="M163.5821 91.1769
L163.5821 91.6002
" />
<path d="M163.5821 91.6002
L163.5216 91.8421
" />
<path d="M163.5216 91.8421
L163.4007 91.9631
" />
<path d="M163.4007 91.9631
L163.2797 92.0235
" />
<path d="M163.2797 92.0235
L163.0378 92.0235
" />
<path d="M163.0378 92.0235
L162.9169 91.9631
" />
<path d="M162.9169 91.9631
L162.7959 91.8421
" />
<path d="M162.7959 91.8421
L162.7355 91.6002
" />
<path d="M162.7355 91.6002
L162.7355 91.1769
" />
<path d="M162.7355 91.1769
L162.7959 90.9350
" />
<path d="M162.7959 90.9350
L162.9169 90.8140
" />
<path d="M162.9169 90.8140
L163.0378 90.7535
" />
<path d="M164.6707 91.1769
L164.6707 92.0235
" />
<path d="M164.1264 91.1769
L164.1264 91.8421
" />
<path d="M164.1264 91.8421
L164.1869 91.9631
" />
<path d="M164.1869 91.9631
L164.3079 92.0235
" />
<path d="M164.3079 92.0235
L164.4893 92.0235
" />
<path d="M164.4893 92.0235
L164.6102 91.9631
" />
<path d="M164.6102 91.9631
L164.6707 91.9026
" />
<path d="M165.0940 91.1769
L165.5778 91.1769
" />
<path d="M165.2754 90.7535
L165.2754 91.8421
" />
<path d="M165.2754 91.8421
L165.3359 91.9631
" />
<path d="M165.3359 91.9631
L165.4569 92.0235
" />
<path d="M165.4569 92.0235
L165.5778 92.0235
" />
<path d="M166.0011 91.1769
L166.0011 92.4469
" />
<path d="M166.0011 91.2373
L166.1221 91.1769
" />
<path d="M166.1221 91.1769
L166.3640 91.1769
" />
<path d="M166.3640 91.1769
L166.4849 91.2373
" />
<path d="M166.4849 91.2373
L166.5454 91.2978
" />
<path d="M166.5454 91.2978
L166.6059 91.4188
" />
<path d="M166.6059 91.4188
L166.6059 91.7816
" />
<path d="M166.6059 91.7816
L166.5454 91.9026
" />
<path d="M166.5454 91.9026
L166.4849 91.9631
" />
<path d="M166.4849 91.9631
L166.3640 92.0235
" />
<path d="M166.3640 92.0235
L166.1221 92.0235
" />
<path d="M166.1221 92.0235
L166.0011 91.9631
" />
<path d="M167.6944 91.1769
L167.6944 92.0235
" />
<path d="M167.1501 91.1769
L167.1501 91.8421
" />
<path d="M167.1501 91.8421
L167.2106 91.9631
" />
<path d="M167.2106 91.9631
L167.3316 92.0235
" />
<path d="M167.3316 92.0235
L167.5130 92.0235
" />
<path d="M167.5130 92.0235
L167.6339 91.9631
" />
<path d="M167.6339 91.9631
L167.6944 91.9026
" />
<path d="M168.1177 91.1769
L168.6015 91.1769
" />
<path d="M168.2991 90.7535
L168.2991 91.8421
" />
<path d="M168.2991 91.8421
L168.3596 91.9631
" />
<path d="M168.3596 91.9631
L168.4806 92.0235
" />
<path d="M168.4806 92.0235
L168.6015 92.0235
" />
</g></g>
<g style="fill:#009600; fill-opacity:1.0000; 
stroke:#009600; stroke-width:0.1524; stroke-opacity:1; 
stroke-linecap:round; stroke-linejoin:round;">
<circle cx="140.9700" cy="91.4400" r="0.4572" /> 
<circle cx="140.9700" cy="83.8200" r="0.4572" /> 
</g> 
</svg>
